<?xml version="1.0" encoding="UTF-8" standalone="no"?>
<!DOCTYPE svg PUBLIC "-//W3C//DTD SVG 1.1//EN" "http://www.w3.org/Graphics/SVG/1.1/DTD/svg11.dtd">
<svg width="100%" height="100%" viewBox="0 0 134 49" version="1.1" xmlns="http://www.w3.org/2000/svg" xmlns:xlink="http://www.w3.org/1999/xlink" xml:space="preserve" xmlns:serif="http://www.serif.com/" style="fill-rule:evenodd;clip-rule:evenodd;stroke-linejoin:round;stroke-miterlimit:2;">
    <g transform="matrix(1,0,0,1,-13994.7,-9020.25)">
        <g transform="matrix(1,0,0,1,12889.1,-557.691)">
            <g transform="matrix(1,0,0,1,-12856.3,557.691)">
                <path d="M14078,9038.81L14071.3,9028.8C14069.6,9026.27 14070.3,9022.85 14072.8,9021.17C14075.4,9019.49 14078.8,9020.17 14080.5,9022.7L14094.9,9044.31L14080.5,9065.92C14078.8,9068.45 14075.4,9069.13 14072.8,9067.45C14070.3,9065.76 14069.6,9062.35 14071.3,9059.82L14078,9049.81L13967.3,9049.81C13964.3,9049.81 13961.8,9047.34 13961.8,9044.31C13961.8,9041.27 13964.3,9038.81 13967.3,9038.81L14078,9038.81Z"/>
            </g>
        </g>
    </g>
</svg>
