<svg id="Layer_1" data-name="Layer 1" xmlns="http://www.w3.org/2000/svg" viewBox="0 0 78.3 40.26"><defs><style>.cls-1{fill:#5f6f65;}.cls-2{fill:#231f20;}</style></defs><path class="cls-1" d="M31.72,6.45h3.36V7.2H33.82V13H33V7.2H31.72Z"/><path class="cls-1" d="M35.57,6.45h.83V9.2h2V6.45h.85V13h-.85V9.92h-2V13h-.83Z"/><path class="cls-1" d="M40.26,6.45h3V7.2H41.09v2h2V10h-2v2.24h2.17V13h-3Z"/><path class="cls-2" d="M32.12,15.29h2.25v7.15H37.1v1.83h-5Z"/><path class="cls-2" d="M37.55,18.89a5.08,5.08,0,0,1,.56-2.7,2.74,2.74,0,0,1,2.46-1,2.91,2.91,0,0,1,2.66,1.07,6,6,0,0,1,.51,2.92v1.34a5.57,5.57,0,0,1-.52,2.83,2.72,2.72,0,0,1-2.53,1.12A2.8,2.8,0,0,1,38,23.29a6.32,6.32,0,0,1-.49-3Zm3.1,3.69c.55,0,.83-.55.83-1.67l0-.4V18.37c0-.93-.27-1.39-.8-1.39s-.65.34-.76,1c0,.18,0,.68,0,1.49v.64l0,.42V21C39.82,22.05,40.1,22.58,40.65,22.58Z"/><path class="cls-2" d="M44,15.29h5.31v1.83H47.8v7.15H45.55V17.12H44Z"/><path class="cls-2" d="M49.74,15.29H52v3.43h1.47V15.29H55.7v9H53.47V20.53H52v3.74H49.74Z"/><path class="cls-2" d="M56.84,15.29H59.1v9H56.84Z"/><path class="cls-2" d="M60,15.29h2.54q1.47,3.94,2.23,6.57c-.19-1.3-.32-2.46-.39-3.49s-.1-2.06-.1-3.09h2.22v9H63.91a63.38,63.38,0,0,1-2.15-6.73c.11.76.2,1.74.29,2.92s.13,2.45.13,3.81H60Z"/><path class="cls-2" d="M71.22,18.19c0-.79-.29-1.18-.86-1.18-.38,0-.62.29-.72.89a11.6,11.6,0,0,0,0,1.33V21c0,1.05.25,1.57.76,1.57s.89-.38.89-1.14v-.69h-1V19h3.17v5.3h-1.8v-1a2.24,2.24,0,0,1-.8.92,2.3,2.3,0,0,1-1.19.27,2,2,0,0,1-2-1.5,9.25,9.25,0,0,1-.3-2.75c0-.63,0-1.15,0-1.55s0-.7,0-.89a3,3,0,0,1,.77-1.85,3,3,0,0,1,2.29-.76q3,0,3,3.06Z"/><path class="cls-1" d="M51.59,26.87h.86v5.7h2.09v.76H51.59Z"/><path class="cls-1" d="M56,26.87h1l1.47,6.46h-.89l-.39-2H55.77l-.41,2h-.89Zm1,3.74a28.39,28.39,0,0,1-.53-2.85c0,.2-.07.4-.11.6s-.1.48-.18.83l-.28,1.42Z"/><path class="cls-1" d="M58.94,26.87h1.19a3.09,3.09,0,0,1,1.54.28,1.46,1.46,0,0,1,.59,1.37,2.61,2.61,0,0,1-.1.85,1,1,0,0,1-.56.61c.56.09.84.6.84,1.51A1.87,1.87,0,0,1,62,32.92a2.08,2.08,0,0,1-1.47.41H58.94Zm1.61,2.78a.81.81,0,0,0,.76-.33,1.86,1.86,0,0,0,.13-.85c0-.57-.32-.85-.95-.85h-.71v2Zm0,2.94a1,1,0,0,0,.84-.28,1.54,1.54,0,0,0,.18-.88,1.13,1.13,0,0,0-.23-.83,1.17,1.17,0,0,0-.84-.23h-.75v2.22Z"/><path class="cls-1" d="M63.2,26.87h3v.75H64v2h2v.74H64v2.22h2.16v.75h-3Z"/><path class="cls-1" d="M66.9,26.87h.85v5.7h2.1v.76H66.9Z"/><path class="cls-1" d="M71,31.4v.08a1.72,1.72,0,0,0,.16.84.76.76,0,0,0,.73.34q.93,0,.93-1a1.26,1.26,0,0,0-.65-1.08l-1.22-.76a1.92,1.92,0,0,1-.65-1.53,1.36,1.36,0,0,1,.47-1.12,1.8,1.8,0,0,1,1.2-.39c1.07,0,1.6.58,1.6,1.73v.19h-.83v-.34c0-.58-.27-.86-.81-.86a.85.85,0,0,0-.59.21.75.75,0,0,0-.23.57,1.32,1.32,0,0,0,.66,1.06l1.21.8a1.89,1.89,0,0,1,.66,1.48c0,1.19-.62,1.79-1.86,1.79a1.43,1.43,0,0,1-1.28-.59,2.61,2.61,0,0,1-.32-1.43Z"/><path class="cls-1" d="M21.12,37H21A12.29,12.29,0,0,1,9.37,28.3l.64-.2a11.62,11.62,0,0,0,11,8.23h.11A11.71,11.71,0,0,0,32.26,28.1l.64.2A12.36,12.36,0,0,1,21.12,37Z"/><path class="cls-2" d="M24.78,13.63h6.94A10.63,10.63,0,0,0,21,3.68a10.51,10.51,0,0,0-1.69.15v7.22A3.67,3.67,0,0,1,21,10.58,3.74,3.74,0,0,1,24.78,13.63Z"/><path class="cls-2" d="M10.93,16.63h6.46V14.39c0-.07,0-.14,0-.22V4.36a10.78,10.78,0,0,0-6.9,9.71h0v2.57Z"/><path class="cls-2" d="M24.78,25a3.72,3.72,0,0,1-7.3,0L17,25H10.53A10.62,10.62,0,0,0,31.72,25Z"/><path class="cls-1" d="M17,24.28H4a6.91,6.91,0,0,1,6.91-6.91H23.87A6.92,6.92,0,0,1,17,24.28Z"/></svg>