<svg id="Icons" xmlns="http://www.w3.org/2000/svg" xmlns:xlink="http://www.w3.org/1999/xlink" viewBox="0 0 128 128"><defs><style>.cls-1{fill:none;}.cls-2{fill:#ff8933;}.cls-23,.cls-26,.cls-3{fill:#fff;}.cls-4{clip-path:url(#clip-path);}.cls-5{fill:#f9b485;}.cls-6{fill:#cc6d29;opacity:0.65;}.cls-7{fill:#ffa766;}.cls-8{fill:#f62d71;}.cls-9{clip-path:url(#clip-path-2);}.cls-10{fill:#ff5c35;}.cls-11{clip-path:url(#clip-path-3);}.cls-12{fill:#387d4e;}.cls-13{clip-path:url(#clip-path-4);}.cls-14{fill:#f56271;}.cls-15{clip-path:url(#clip-path-5);}.cls-16{clip-path:url(#clip-path-6);}.cls-17{fill:#0fbfbf;}.cls-18{clip-path:url(#clip-path-7);}.cls-19{fill:#ffbc4b;}.cls-20{fill:#3e5974;}.cls-21{fill:#516f90;}.cls-22{fill:#2e475d;}.cls-23{stroke:#dbe4ed;stroke-width:0.14px;}.cls-23,.cls-26{stroke-miterlimit:10;}.cls-24{fill:#ffcec2;}.cls-25{fill:#ff7a59;}.cls-26{stroke:#ff5c35;stroke-width:0.15px;}.cls-27{clip-path:url(#clip-path-8);}.cls-28{clip-path:url(#clip-path-9);}</style><clipPath id="clip-path"><circle class="cls-1" cx="100.68" cy="63.5" r="11.61"/></clipPath><clipPath id="clip-path-2"><circle class="cls-1" cx="96.38" cy="27.02" r="11.61"/></clipPath><clipPath id="clip-path-3"><circle class="cls-1" cx="39.84" cy="51.76" r="9.78"/></clipPath><clipPath id="clip-path-4"><circle class="cls-1" cx="15.18" cy="69.73" r="10.42"/></clipPath><clipPath id="clip-path-5"><circle class="cls-1" cx="34.68" cy="107.05" r="7.72"/></clipPath><clipPath id="clip-path-6"><circle class="cls-1" cx="115.78" cy="83.16" r="7.72"/></clipPath><clipPath id="clip-path-7"><circle class="cls-1" cx="20.27" cy="16.8" r="11.32"/></clipPath><clipPath id="clip-path-8"><circle class="cls-1" cx="63.7" cy="82.1" r="3.8"/></clipPath><clipPath id="clip-path-9"><circle class="cls-1" cx="63.7" cy="100.22" r="3.8"/></clipPath></defs><polygon class="cls-2" points="62.19 72.64 61.19 72.64 61.19 17.22 31.04 17.22 31.04 16.22 62.19 16.22 62.19 72.64"/><polygon class="cls-2" points="72.36 72.64 71.36 72.64 71.36 26.31 84.87 26.31 84.87 27.31 72.36 27.31 72.36 72.64"/><polygon class="cls-2" points="116.05 99.84 77.31 99.84 77.31 98.84 115.05 98.84 115.05 64.4 111.89 64.4 111.89 63.4 116.05 63.4 116.05 99.84"/><polygon class="cls-2" points="52.02 107.67 14.73 107.67 14.73 80.33 15.73 80.33 15.73 106.67 52.02 106.67 52.02 107.67"/><polygon class="cls-2" points="51.43 76.48 39.42 76.48 39.42 61.39 40.42 61.39 40.42 75.48 51.43 75.48 51.43 76.48"/><circle class="cls-3" cx="100.68" cy="63.5" r="11.61"/><g class="cls-4"><rect class="cls-5" x="98.2" y="66.34" width="4.95" height="3.32"/><path class="cls-6" d="M103.14,67.91a6.58,6.58,0,0,1-1.54.11h0c-.87.06-3,.09-3.71-1.55v-.13h5.25Z"/><path class="cls-5" d="M100.64,53.34h0a4.9,4.9,0,0,0-4.9,4.9v4.48a4.89,4.89,0,0,0,4.9,4.89h0a4.9,4.9,0,0,0,4.9-4.89V58.24A4.91,4.91,0,0,0,100.64,53.34Z"/><path class="cls-7" d="M99.75,61.18a.92.92,0,0,0,1.83,0Z"/><path class="cls-7" d="M100.63,53.33h0a4.91,4.91,0,0,0-1.33.18,4.91,4.91,0,0,1,3.57,4.72v4.49a4.9,4.9,0,0,1-3.57,4.71,4.91,4.91,0,0,0,1.33.18h0a4.89,4.89,0,0,0,4.9-4.89V58.23A4.9,4.9,0,0,0,100.63,53.33Z"/><rect class="cls-5" x="95.05" y="59.57" width="1.31" height="3.32" rx="0.65"/><rect class="cls-7" x="104.88" y="59.57" width="1.31" height="3.32" rx="0.65"/><path class="cls-8" d="M103.29,68.33a3.94,3.94,0,0,1-5.32,0,7.56,7.56,0,0,0-4.9,7.09v3.75h15.14V75.43A7.59,7.59,0,0,0,103.29,68.33Z"/><path class="cls-3" d="M100.63,70a3.91,3.91,0,0,0,3.08-1.49l-.42-.18a3.94,3.94,0,0,1-5.32,0l-.42.17A3.91,3.91,0,0,0,100.63,70Z"/></g><path class="cls-2" d="M100.68,75.34A11.84,11.84,0,1,1,112.51,63.5,11.85,11.85,0,0,1,100.68,75.34Zm0-23.22A11.38,11.38,0,1,0,112.05,63.5,11.39,11.39,0,0,0,100.68,52.12Z"/><circle class="cls-3" cx="96.38" cy="27.02" r="11.61"/><g class="cls-9"><rect class="cls-5" x="93.9" y="29.86" width="4.95" height="3.32"/><path class="cls-6" d="M98.85,31.43a7.17,7.17,0,0,1-1.54.11h0c-.87.05-3,.08-3.71-1.56v-.12h5.25Z"/><path class="cls-5" d="M96.34,16.86h0a4.89,4.89,0,0,0-4.89,4.9v4.47a4.89,4.89,0,0,0,4.89,4.9h0a4.9,4.9,0,0,0,4.9-4.9V21.76A4.9,4.9,0,0,0,96.34,16.86Z"/><path class="cls-7" d="M95.46,24.7a.91.91,0,0,0,1.82,0Z"/><path class="cls-7" d="M96.34,16.85h0A4.85,4.85,0,0,0,95,17a4.9,4.9,0,0,1,3.57,4.72v4.48A4.9,4.9,0,0,1,95,31a4.85,4.85,0,0,0,1.33.18h0a4.9,4.9,0,0,0,4.9-4.9V21.75A4.9,4.9,0,0,0,96.34,16.85Z"/><rect class="cls-5" x="90.76" y="23.08" width="1.31" height="3.32" rx="0.65"/><rect class="cls-7" x="100.58" y="23.08" width="1.31" height="3.32" rx="0.65"/><path class="cls-10" d="M99,31.85a3.95,3.95,0,0,1-5.32,0,7.58,7.58,0,0,0-4.91,7.09v3.75h15.14V38.94A7.56,7.56,0,0,0,99,31.85Z"/><path class="cls-3" d="M96.34,33.52A3.92,3.92,0,0,0,99.42,32L99,31.85a3.95,3.95,0,0,1-5.32,0l-.42.18A3.91,3.91,0,0,0,96.34,33.52Z"/></g><path class="cls-2" d="M96.38,38.85A11.84,11.84,0,1,1,108.22,27,11.85,11.85,0,0,1,96.38,38.85Zm0-23.21A11.38,11.38,0,1,0,107.76,27,11.38,11.38,0,0,0,96.38,15.64Z"/><circle class="cls-3" cx="39.84" cy="51.76" r="9.78"/><g class="cls-11"><rect class="cls-5" x="37.75" y="54.15" width="4.17" height="2.8"/><path class="cls-6" d="M41.92,55.47a5.62,5.62,0,0,1-1.3.1h0c-.73,0-2.49.07-3.12-1.31v-.11h4.42Z"/><path class="cls-5" d="M39.81,43.2h0a4.13,4.13,0,0,0-4.13,4.13V51.1a4.13,4.13,0,0,0,4.13,4.13h0a4.13,4.13,0,0,0,4.13-4.13V47.33A4.13,4.13,0,0,0,39.81,43.2Z"/><path class="cls-7" d="M39.06,49.81a.77.77,0,0,0,1.54,0Z"/><path class="cls-7" d="M39.81,43.19h0a4.1,4.1,0,0,0-1.12.16,4.12,4.12,0,0,1,3,4V51.1a4.13,4.13,0,0,1-3,4,4.1,4.1,0,0,0,1.12.16h0a4.12,4.12,0,0,0,4.12-4.13V47.32A4.12,4.12,0,0,0,39.81,43.19Z"/><rect class="cls-5" x="35.1" y="48.45" width="1.1" height="2.8" rx="0.55"/><rect class="cls-7" x="43.38" y="48.45" width="1.1" height="2.8" rx="0.55"/><path class="cls-12" d="M42,55.83a3.3,3.3,0,0,1-2.24.87,3.33,3.33,0,0,1-2.23-.86,6.36,6.36,0,0,0-4.14,6V65H46.19V61.81A6.39,6.39,0,0,0,42,55.83Z"/><path class="cls-3" d="M39.8,57.24A3.3,3.3,0,0,0,42.4,56L42,55.83a3.3,3.3,0,0,1-2.24.87,3.33,3.33,0,0,1-2.23-.86,3,3,0,0,0-.36.14A3.28,3.28,0,0,0,39.8,57.24Z"/></g><path class="cls-2" d="M39.84,61.73a10,10,0,1,1,10-10A10,10,0,0,1,39.84,61.73Zm0-19.55a9.59,9.59,0,1,0,9.59,9.58A9.59,9.59,0,0,0,39.84,42.18Z"/><circle class="cls-3" cx="15.18" cy="69.73" r="10.42"/><g class="cls-13"><rect class="cls-5" x="12.95" y="72.28" width="4.44" height="2.98"/><path class="cls-6" d="M17.39,73.68a5.76,5.76,0,0,1-1.38.1h0c-.78.06-2.66.08-3.33-1.39v-.11h4.71Z"/><path class="cls-5" d="M15.14,60.6h0a4.4,4.4,0,0,0-4.4,4.4v4a4.4,4.4,0,0,0,4.4,4.4h0a4.4,4.4,0,0,0,4.4-4.4V65A4.4,4.4,0,0,0,15.14,60.6Z"/><path class="cls-7" d="M14.35,67.64a.82.82,0,0,0,.82.78.83.83,0,0,0,.82-.78Z"/><path class="cls-7" d="M15.14,60.59h0a4.23,4.23,0,0,0-1.19.17A4.41,4.41,0,0,1,17.15,65v4A4.4,4.4,0,0,1,14,73.25a4.23,4.23,0,0,0,1.19.17h0a4.4,4.4,0,0,0,4.4-4.4V65A4.4,4.4,0,0,0,15.14,60.59Z"/><rect class="cls-5" x="10.12" y="66.19" width="1.17" height="2.98" rx="0.59"/><rect class="cls-7" x="18.95" y="66.19" width="1.17" height="2.98" rx="0.59"/><path class="cls-14" d="M17.52,74.06a3.5,3.5,0,0,1-2.39.93,3.55,3.55,0,0,1-2.38-.92,6.8,6.8,0,0,0-4.41,6.36V83.8h13.6V80.43A6.82,6.82,0,0,0,17.52,74.06Z"/><path class="cls-3" d="M15.13,75.56a3.53,3.53,0,0,0,2.78-1.34l-.39-.16a3.5,3.5,0,0,1-2.39.93,3.55,3.55,0,0,1-2.38-.92l-.38.16A3.51,3.51,0,0,0,15.13,75.56Z"/></g><path class="cls-2" d="M15.18,80.35A10.63,10.63,0,1,1,25.8,69.73,10.64,10.64,0,0,1,15.18,80.35Zm0-20.84A10.22,10.22,0,1,0,25.39,69.73,10.23,10.23,0,0,0,15.18,59.51Z"/><circle class="cls-3" cx="34.68" cy="107.05" r="7.72"/><g class="cls-15"><rect class="cls-5" x="33.03" y="108.94" width="3.29" height="2.21"/><path class="cls-6" d="M36.32,110a4.39,4.39,0,0,1-1,.08h0c-.58,0-2,0-2.47-1v-.08h3.5Z"/><path class="cls-5" d="M34.65,100.3h0a3.25,3.25,0,0,0-3.26,3.25v3a3.26,3.26,0,0,0,3.26,3.26h0a3.26,3.26,0,0,0,3.26-3.26v-3A3.25,3.25,0,0,0,34.65,100.3Z"/><path class="cls-7" d="M34.06,105.51a.61.61,0,0,0,.61.57.6.6,0,0,0,.6-.57Z"/><path class="cls-7" d="M34.65,100.29h0a3.3,3.3,0,0,0-.89.12,3.27,3.27,0,0,1,2.38,3.14v3a3.25,3.25,0,0,1-2.38,3.13,3.3,3.3,0,0,0,.89.13h0a3.26,3.26,0,0,0,3.26-3.26v-3A3.26,3.26,0,0,0,34.65,100.29Z"/><rect class="cls-5" x="30.93" y="104.44" width="0.87" height="2.21" rx="0.43"/><rect class="cls-7" x="37.47" y="104.44" width="0.87" height="2.21" rx="0.43"/><path class="cls-2" d="M36.41,110.26a2.57,2.57,0,0,1-1.76.69,2.63,2.63,0,0,1-1.77-.68A5,5,0,0,0,29.62,115v2.49H39.68V115A5,5,0,0,0,36.41,110.26Z"/><path class="cls-3" d="M34.65,111.37a2.59,2.59,0,0,0,2.05-1l-.29-.12a2.57,2.57,0,0,1-1.76.69,2.63,2.63,0,0,1-1.77-.68l-.28.11A2.58,2.58,0,0,0,34.65,111.37Z"/></g><path class="cls-2" d="M34.68,114.92a7.87,7.87,0,1,1,7.86-7.87A7.88,7.88,0,0,1,34.68,114.92Zm0-15.43a7.57,7.57,0,1,0,7.56,7.56A7.57,7.57,0,0,0,34.68,99.49Z"/><circle class="cls-3" cx="115.78" cy="83.16" r="7.72"/><g class="cls-16"><rect class="cls-5" x="114.13" y="85.05" width="3.29" height="2.21"/><path class="cls-6" d="M117.42,86.09a5,5,0,0,1-1,.07h0c-.57,0-2,.06-2.46-1v-.08h3.49Z"/><path class="cls-5" d="M115.75,76.4h0a3.26,3.26,0,0,0-3.25,3.26v3a3.26,3.26,0,0,0,3.25,3.26h0A3.26,3.26,0,0,0,119,82.63v-3A3.26,3.26,0,0,0,115.75,76.4Z"/><path class="cls-7" d="M115.17,81.62a.6.6,0,0,0,.6.57.61.61,0,0,0,.61-.57Z"/><path class="cls-7" d="M115.75,76.39h0a3.23,3.23,0,0,0-.88.13,3.25,3.25,0,0,1,2.37,3.13v3a3.26,3.26,0,0,1-2.37,3.14,3.22,3.22,0,0,0,.88.12h0A3.26,3.26,0,0,0,119,82.63v-3A3.26,3.26,0,0,0,115.75,76.39Z"/><rect class="cls-5" x="112.04" y="80.54" width="0.87" height="2.21" rx="0.43"/><rect class="cls-7" x="118.57" y="80.54" width="0.87" height="2.21" rx="0.43"/><path class="cls-17" d="M117.52,86.37a2.62,2.62,0,0,1-3.54,0,5.05,5.05,0,0,0-3.26,4.72v2.49h10.07V91.09A5,5,0,0,0,117.52,86.37Z"/><path class="cls-3" d="M115.75,87.48a2.62,2.62,0,0,0,2-1c-.09,0-.19-.08-.28-.12a2.62,2.62,0,0,1-3.54,0l-.28.12A2.62,2.62,0,0,0,115.75,87.48Z"/></g><path class="cls-2" d="M115.78,91a7.87,7.87,0,1,1,7.87-7.87A7.88,7.88,0,0,1,115.78,91Zm0-15.44a7.57,7.57,0,1,0,7.57,7.57A7.58,7.58,0,0,0,115.78,75.59Z"/><circle class="cls-3" cx="20.27" cy="16.8" r="11.32"/><g class="cls-18"><rect class="cls-5" x="17.85" y="19.57" width="4.82" height="3.24"/><path class="cls-6" d="M22.68,21.1a6.85,6.85,0,0,1-1.51.11h0c-.84.05-2.88.08-3.61-1.52v-.12h5.12Z"/><path class="cls-5" d="M20.23,6.89h0a4.78,4.78,0,0,0-4.78,4.78V16a4.78,4.78,0,0,0,4.78,4.78h0A4.78,4.78,0,0,0,25,16V11.67A4.78,4.78,0,0,0,20.23,6.89Z"/><path class="cls-7" d="M19.37,14.54a.9.9,0,0,0,.89.84.88.88,0,0,0,.89-.84Z"/><path class="cls-7" d="M20.23,6.88h0a4.69,4.69,0,0,0-1.3.18,4.78,4.78,0,0,1,3.49,4.6V16a4.78,4.78,0,0,1-3.49,4.6,4.69,4.69,0,0,0,1.3.18h0A4.78,4.78,0,0,0,25,16V11.66A4.78,4.78,0,0,0,20.23,6.88Z"/><rect class="cls-5" x="14.78" y="12.96" width="1.28" height="3.24" rx="0.64"/><rect class="cls-7" x="24.37" y="12.96" width="1.28" height="3.24" rx="0.64"/><path class="cls-19" d="M22.82,21.51a3.79,3.79,0,0,1-2.59,1,3.83,3.83,0,0,1-2.59-1,7.38,7.38,0,0,0-4.79,6.91v3.66H27.62V28.43A7.39,7.39,0,0,0,22.82,21.51Z"/><path class="cls-3" d="M20.23,23.14a3.84,3.84,0,0,0,3-1.46l-.42-.17a3.79,3.79,0,0,1-2.59,1,3.83,3.83,0,0,1-2.59-1l-.42.17A3.84,3.84,0,0,0,20.23,23.14Z"/></g><path class="cls-2" d="M20.27,28.35A11.55,11.55,0,1,1,31.82,16.8,11.56,11.56,0,0,1,20.27,28.35Zm0-22.65a11.1,11.1,0,1,0,11.1,11.1A11.11,11.11,0,0,0,20.27,5.7Z"/><path class="cls-3" d="M77,120.34a2.14,2.14,0,0,1-2.13,2.14H52.5a2.13,2.13,0,0,1-2.13-2.14V75.92a2.13,2.13,0,0,1,2.13-2.13h4.35a.61.61,0,0,1,.33.24,3.39,3.39,0,0,0,2.9,1.64H67.2A3.39,3.39,0,0,0,70.1,74a.61.61,0,0,1,.33-.24H74.9A2.13,2.13,0,0,1,77,75.92Z"/><path class="cls-20" d="M74.9,72.29H52.5a3.64,3.64,0,0,0-3.64,3.63v44.42A3.65,3.65,0,0,0,52.5,124H74.9a3.64,3.64,0,0,0,3.63-3.64V75.92A3.64,3.64,0,0,0,74.9,72.29ZM77,120.34a2.14,2.14,0,0,1-2.13,2.14H52.5a2.13,2.13,0,0,1-2.13-2.14V75.92a2.13,2.13,0,0,1,2.13-2.13h4.35a.61.61,0,0,1,.33.24,3.39,3.39,0,0,0,2.9,1.64H67.2A3.39,3.39,0,0,0,70.1,74a.61.61,0,0,1,.33-.24H74.9A2.13,2.13,0,0,1,77,75.92Z"/><circle class="cls-21" cx="67.74" cy="74.57" r="0.47"/><circle class="cls-21" cx="66.61" cy="74.65" r="0.38"/><circle class="cls-21" cx="65.62" cy="74.65" r="0.38"/><circle class="cls-21" cx="59.83" cy="74.65" r="0.38"/><path class="cls-22" d="M68.55,121.12h0a.46.46,0,0,0-.47-.46H59.3a.46.46,0,0,0-.47.46h0a.47.47,0,0,0,.47.47h8.78A.47.47,0,0,0,68.55,121.12Z"/><rect class="cls-23" x="54.76" y="83.31" width="17.88" height="11.84"/><circle class="cls-24" cx="58.34" cy="88.22" r="0.96"/><circle class="cls-24" cx="61" cy="88.22" r="0.96"/><circle class="cls-24" cx="63.68" cy="88.22" r="0.96"/><circle class="cls-24" cx="66.33" cy="88.22" r="0.96"/><circle class="cls-24" cx="69.01" cy="88.22" r="0.96"/><rect class="cls-25" x="57.38" y="90.06" width="3.93" height="0.37"/><rect class="cls-25" x="57.38" y="92.34" width="2.14" height="0.37"/><rect class="cls-25" x="57.38" y="91.14" width="7.33" height="0.37"/><rect class="cls-25" x="65.14" y="91.14" width="6.34" height="0.37"/><circle class="cls-26" cx="63.7" cy="82.1" r="3.8"/><g class="cls-27"><rect class="cls-5" x="62.89" y="83.03" width="1.62" height="1.09"/><path class="cls-6" d="M64.51,83.54a2.15,2.15,0,0,1-.51,0h0c-.28,0-1,0-1.21-.51v0h1.72Z"/><path class="cls-5" d="M63.69,78.77h0a1.61,1.61,0,0,0-1.61,1.61v1.46a1.6,1.6,0,0,0,1.61,1.6h0a1.6,1.6,0,0,0,1.6-1.6V80.38A1.61,1.61,0,0,0,63.69,78.77Z"/><path class="cls-7" d="M63.4,81.34a.3.3,0,0,0,.3.28.29.29,0,0,0,.29-.28Z"/><path class="cls-7" d="M63.69,78.77h0a1.56,1.56,0,0,0-.44.06,1.61,1.61,0,0,1,1.17,1.54v1.47a1.61,1.61,0,0,1-1.17,1.54,1.56,1.56,0,0,0,.44.06h0a1.6,1.6,0,0,0,1.6-1.6V80.37A1.6,1.6,0,0,0,63.69,78.77Z"/><rect class="cls-5" x="61.86" y="80.81" width="0.43" height="1.09" rx="0.21"/><rect class="cls-7" x="65.07" y="80.81" width="0.43" height="1.09" rx="0.21"/><path class="cls-10" d="M64.55,83.68a1.28,1.28,0,0,1-.87.34,1.3,1.3,0,0,1-.87-.34A2.48,2.48,0,0,0,61.21,86v1.23h4.95V86A2.48,2.48,0,0,0,64.55,83.68Z"/><path class="cls-3" d="M63.68,84.22a1.29,1.29,0,0,0,1-.48l-.14-.06a1.28,1.28,0,0,1-.87.34,1.3,1.3,0,0,1-.87-.34l-.13.06A1.27,1.27,0,0,0,63.68,84.22Z"/></g><rect class="cls-23" x="54.76" y="101.43" width="17.88" height="11.84"/><circle class="cls-24" cx="58.34" cy="106.34" r="0.96"/><circle class="cls-24" cx="61" cy="106.34" r="0.96"/><circle class="cls-24" cx="63.68" cy="106.34" r="0.96"/><circle class="cls-24" cx="66.33" cy="106.34" r="0.96"/><circle class="cls-24" cx="69.01" cy="106.34" r="0.96"/><rect class="cls-25" x="57.38" y="108.18" width="3.93" height="0.37"/><rect class="cls-25" x="57.38" y="110.47" width="2.14" height="0.37"/><rect class="cls-25" x="57.38" y="109.26" width="7.33" height="0.37"/><rect class="cls-25" x="65.14" y="109.26" width="6.34" height="0.37"/><circle class="cls-3" cx="63.7" cy="100.22" r="3.8"/><g class="cls-28"><rect class="cls-5" x="62.89" y="101.15" width="1.62" height="1.09"/><path class="cls-6" d="M64.51,101.66a2.15,2.15,0,0,1-.51,0h0c-.28,0-1,0-1.21-.51v0h1.72Z"/><path class="cls-5" d="M63.69,96.89h0a1.61,1.61,0,0,0-1.61,1.61V100a1.6,1.6,0,0,0,1.61,1.6h0a1.6,1.6,0,0,0,1.6-1.6V98.5A1.61,1.61,0,0,0,63.69,96.89Z"/><path class="cls-7" d="M63.4,99.46a.3.3,0,0,0,.3.28.29.29,0,0,0,.29-.28Z"/><path class="cls-7" d="M63.69,96.89h0a1.56,1.56,0,0,0-.44.06,1.61,1.61,0,0,1,1.17,1.54V100a1.6,1.6,0,0,1-1.17,1.54,1.56,1.56,0,0,0,.44.06h0a1.6,1.6,0,0,0,1.6-1.6V98.49A1.6,1.6,0,0,0,63.69,96.89Z"/><rect class="cls-5" x="61.86" y="98.93" width="0.43" height="1.09" rx="0.21"/><rect class="cls-7" x="65.07" y="98.93" width="0.43" height="1.09" rx="0.21"/><path class="cls-19" d="M64.55,101.8a1.28,1.28,0,0,1-.87.34,1.3,1.3,0,0,1-.87-.34,2.48,2.48,0,0,0-1.6,2.32v1.23h4.95v-1.23A2.48,2.48,0,0,0,64.55,101.8Z"/><path class="cls-3" d="M63.68,102.35a1.3,1.3,0,0,0,1-.49l-.14-.06a1.28,1.28,0,0,1-.87.34,1.3,1.3,0,0,1-.87-.34l-.13.06A1.25,1.25,0,0,0,63.68,102.35Z"/></g><path class="cls-10" d="M63.7,104.09a3.88,3.88,0,1,1,3.87-3.87A3.87,3.87,0,0,1,63.7,104.09Zm0-7.6a3.73,3.73,0,1,0,3.72,3.73A3.73,3.73,0,0,0,63.7,96.49Z"/><rect class="cls-24" x="54.81" y="115.28" width="18.29" height="3.45" rx="0.8"/><path class="cls-25" d="M54.81,118H73.05a0,0,0,0,1,0,0v0a.76.76,0,0,1-.76.76H55.57a.76.76,0,0,1-.76-.76v0a0,0,0,0,1,0,0Z"/></svg>