<?xml version="1.0" encoding="UTF-8" standalone="no"?>
<!DOCTYPE svg PUBLIC "-//W3C//DTD SVG 1.1//EN" "http://www.w3.org/Graphics/SVG/1.1/DTD/svg11.dtd">
<svg width="100%" height="100%" viewBox="0 0 915 347" version="1.1" xmlns="http://www.w3.org/2000/svg" xmlns:xlink="http://www.w3.org/1999/xlink" xml:space="preserve" xmlns:serif="http://www.serif.com/" style="fill-rule:evenodd;clip-rule:evenodd;stroke-linejoin:round;stroke-miterlimit:2;">
    <g transform="matrix(1,0,0,1,-134.99,-602.616)">
        <g transform="matrix(8.33333,0,0,8.33333,0,0)">
            <path d="M37.194,96.496L23.811,112.293C22.07,114.034 19.247,114.034 17.505,112.293C15.764,110.552 15.764,107.728 17.505,105.987L33.648,92.31L17.504,73.254C17.412,73.159 17.412,73.008 17.506,72.915C17.598,72.821 17.754,72.822 17.846,72.915L37.194,89.306L56.545,72.914C56.639,72.821 56.79,72.821 56.884,72.915C56.977,73.008 56.976,73.163 56.883,73.256L40.74,92.31L56.884,105.987C58.625,107.728 58.625,110.552 56.884,112.293C55.142,114.034 52.319,114.034 50.577,112.293L37.194,96.496ZM43.335,98.744C43.31,98.769 43.31,98.81 43.335,98.836L52.278,109.393C52.749,109.864 53.513,109.864 53.984,109.393C54.455,108.922 54.455,108.159 53.984,107.688L43.427,98.744C43.402,98.719 43.36,98.719 43.335,98.744ZM31.054,98.744C31.029,98.719 30.988,98.719 30.962,98.744L20.405,107.688C19.934,108.159 19.934,108.922 20.405,109.393C20.876,109.864 21.639,109.864 22.111,109.393L31.054,98.837C31.079,98.811 31.079,98.769 31.054,98.744Z" style="fill:rgb(0,122,179);"/>
        </g>
        <g transform="matrix(8.33333,0,0,8.33333,0,0)">
            <path d="M75.988,76.755L73.12,77.461C72.899,76.064 72.223,75.197 70.811,75.197C69.178,75.197 68.266,76.402 68.266,78.388C68.266,80.329 69.031,81.565 70.737,81.565C72.281,81.565 72.973,80.52 73.149,79.05L76.076,79.491C75.605,82.079 73.885,83.903 70.767,83.903C66.84,83.903 65.399,81.388 65.399,78.388C65.399,75.388 67.355,72.873 70.855,72.873C73.811,72.873 75.488,74.446 75.988,76.755ZM82.753,75.52L85.415,75.52L85.415,83.756L82.768,83.756L82.768,81.874C82.238,83.271 81.312,83.918 80.076,83.918C78.194,83.918 77.267,82.653 77.267,80.697L77.267,75.52L79.929,75.52L79.929,79.917C79.929,81.226 80.311,81.844 81.312,81.844C82.297,81.844 82.753,80.976 82.753,79.506L82.753,75.52ZM86.415,82.359L88.209,80.682C88.9,81.462 89.753,81.829 90.709,81.829C91.533,81.829 91.842,81.506 91.842,81.109C91.842,80.579 91.003,80.52 89.415,80.27C88.606,80.138 87.959,79.917 87.474,79.579C86.988,79.241 86.753,78.711 86.753,77.991C86.753,76.535 87.944,75.314 90.209,75.314C91.915,75.314 93.298,75.77 94.357,76.932L92.548,78.55C91.945,77.785 91.077,77.403 90.077,77.403C89.239,77.403 88.959,77.711 88.959,78.079C88.959,78.564 89.606,78.653 91.033,78.873C91.959,79.006 92.695,79.256 93.254,79.594C93.827,79.932 94.107,80.476 94.107,81.241C94.107,82.021 93.812,82.668 93.224,83.182C92.636,83.682 91.812,83.932 90.739,83.932C88.724,83.932 87.341,83.344 86.415,82.359ZM101.181,81.521L101.181,83.462C100.754,83.712 100.137,83.903 99.416,83.903C98.372,83.903 97.636,83.653 97.239,83.168C96.842,82.682 96.651,81.962 96.651,81.035L96.651,77.594L94.886,77.594L94.886,75.52L96.68,75.52L96.68,73.491L99.136,72.314L99.136,75.52L101.181,75.52L101.181,77.594L99.136,77.594L99.136,80.623C99.136,81.447 99.475,81.756 100.166,81.756C100.578,81.756 100.842,81.653 101.181,81.521ZM106.521,83.903C103.506,83.903 102.006,82.138 102.006,79.653C102.006,77.197 103.638,75.358 106.521,75.358C109.492,75.358 111.036,77.226 111.036,79.638C111.036,82.05 109.403,83.903 106.521,83.903ZM106.521,81.815C107.771,81.815 108.286,80.976 108.286,79.638C108.286,78.27 107.8,77.403 106.521,77.403C105.3,77.403 104.756,78.285 104.756,79.638C104.741,80.991 105.227,81.815 106.521,81.815ZM115.11,79.756L115.11,83.756L112.448,83.756L112.448,75.52L115.095,75.52L115.095,77.432C115.61,76.02 116.522,75.358 117.772,75.358C119.169,75.358 120.007,76.123 120.316,77.373C120.86,76.02 121.86,75.358 123.11,75.358C124.875,75.358 125.919,76.623 125.919,78.579L125.919,83.756L123.257,83.756L123.257,79.373C123.257,78.064 122.904,77.447 121.904,77.447C120.904,77.447 120.492,78.241 120.492,79.756L120.492,83.756L117.875,83.756L117.875,79.373C117.875,78.064 117.522,77.447 116.522,77.447C115.521,77.447 115.11,78.241 115.11,79.756ZM72.59,90.743L72.458,91.64L70.634,98.714L67.355,98.714L65.075,87.978L67.958,87.978L69.311,94.89L69.502,96.008L69.693,94.89L71.517,87.978L73.87,87.978L75.561,94.89L75.782,96.126L75.988,94.89L77.561,87.978L80.444,87.978L77.811,98.714L74.473,98.714L72.708,91.64L72.59,90.743ZM84.974,98.861C81.959,98.861 80.459,97.096 80.459,94.611C80.459,92.155 82.091,90.316 84.974,90.316C87.945,90.316 89.489,92.184 89.489,94.596C89.489,97.008 87.856,98.861 84.974,98.861ZM84.974,96.773C86.224,96.773 86.739,95.934 86.739,94.596C86.739,93.228 86.253,92.361 84.974,92.361C83.753,92.361 83.209,93.243 83.209,94.596C83.194,95.949 83.68,96.773 84.974,96.773ZM99.049,90.478L95.799,98.714L92.946,98.714L89.784,90.478L92.549,90.478L94.049,94.743L94.402,96.067L94.784,94.743L96.328,90.478L99.049,90.478ZM105.505,95.714L107.8,96.567C107.108,97.92 105.844,98.861 103.741,98.861C100.755,98.861 99.314,97.082 99.314,94.67C99.314,92.272 100.946,90.316 103.785,90.316C106.697,90.316 108.006,92.243 108.006,94.361L108.006,95.155L101.858,95.155C101.99,96.229 102.652,96.817 103.785,96.817C104.652,96.817 105.138,96.493 105.505,95.714ZM103.726,92.258C102.711,92.258 102.064,92.831 101.887,93.846L105.417,93.846C105.358,92.905 104.844,92.258 103.726,92.258ZM112.021,98.714L109.359,98.714L109.359,90.478L112.006,90.478L112.006,92.375C112.535,90.963 113.521,90.316 114.815,90.316C116.639,90.316 117.712,91.581 117.712,93.537L117.712,98.714L115.05,98.714L115.05,94.331C115.05,93.022 114.638,92.405 113.58,92.405C112.565,92.405 112.021,93.199 112.021,94.714L112.021,98.714ZM73.708,113.671L65.781,113.671L65.781,102.935L68.605,102.935L68.605,111.097L73.708,111.097L73.708,113.671ZM77.429,113.847C75.841,113.847 74.855,113.068 74.855,111.789C74.855,110.803 75.311,110.303 75.944,109.891C76.547,109.494 77.458,109.274 79.032,108.935C79.65,108.803 80.047,108.685 80.209,108.553C80.37,108.421 80.459,108.259 80.459,108.038C80.459,107.568 80.076,107.215 79.179,107.215C78.238,107.215 77.591,107.729 77.252,108.685L75.002,107.803C75.767,106.141 77.341,105.273 79.267,105.273C81.606,105.273 82.944,106.376 82.944,108.362L82.944,110.877C82.944,111.597 83.15,111.862 83.665,111.862C83.856,111.862 84.047,111.818 84.209,111.759L84.209,113.362C83.915,113.583 83.326,113.818 82.606,113.818C81.253,113.818 80.517,113.23 80.459,111.891C79.973,113.112 78.826,113.847 77.429,113.847ZM78.547,112.009C79.9,112.009 80.517,110.877 80.517,109.935L80.517,109.597C80.326,109.788 79.944,109.95 79.194,110.112C77.958,110.362 77.473,110.656 77.473,111.23C77.473,111.715 77.826,112.009 78.547,112.009ZM94.005,109.494C94.005,112.259 92.519,113.759 90.505,113.759C89.107,113.759 88.343,113.024 87.916,111.95L87.916,113.671L85.269,113.671L85.269,101.964L87.931,101.964L87.931,107.229C88.446,105.994 89.372,105.347 90.681,105.347C92.578,105.347 94.005,106.656 94.005,109.494ZM89.549,111.73C90.799,111.73 91.313,110.891 91.313,109.553C91.313,108.185 90.799,107.318 89.549,107.318C88.313,107.318 87.784,108.2 87.769,109.553C87.769,110.906 88.254,111.73 89.549,111.73ZM101.387,110.671L103.682,111.524C102.99,112.877 101.726,113.818 99.623,113.818C96.637,113.818 95.196,112.039 95.196,109.627C95.196,107.229 96.828,105.273 99.667,105.273C102.579,105.273 103.888,107.2 103.888,109.318L103.888,110.112L97.74,110.112C97.872,111.186 98.534,111.774 99.667,111.774C100.534,111.774 101.02,111.45 101.387,110.671ZM99.608,107.215C98.593,107.215 97.946,107.788 97.769,108.803L101.299,108.803C101.24,107.862 100.726,107.215 99.608,107.215ZM105.241,101.964L107.903,101.964L107.903,113.671L105.241,113.671L105.241,101.964ZM108.932,112.274L110.726,110.597C111.418,111.377 112.271,111.744 113.227,111.744C114.05,111.744 114.359,111.421 114.359,111.024C114.359,110.494 113.521,110.435 111.932,110.185C111.123,110.053 110.476,109.832 109.991,109.494C109.506,109.156 109.27,108.626 109.27,107.906C109.27,106.45 110.462,105.229 112.726,105.229C114.433,105.229 115.815,105.685 116.874,106.847L115.065,108.465C114.462,107.7 113.594,107.318 112.594,107.318C111.756,107.318 111.476,107.626 111.476,107.994C111.476,108.479 112.124,108.568 113.55,108.788C114.477,108.921 115.212,109.171 115.771,109.509C116.344,109.847 116.624,110.391 116.624,111.156C116.624,111.936 116.33,112.583 115.741,113.097C115.153,113.597 114.33,113.847 113.256,113.847C111.241,113.847 109.859,113.259 108.932,112.274Z" style="fill:rgb(16,32,81);"/>
        </g>
    </g>
</svg>
