<svg id="Layer_1" data-name="Layer 1" xmlns="http://www.w3.org/2000/svg" viewBox="0 0 149.36 147.09"><defs><style>.cls-1{fill:#f6f9fc;}.cls-2{fill:#cae7d3;}.cls-3{fill:#ffebc9;}.cls-4,.cls-5{fill:#ffcd78;}.cls-5{opacity:0.41;}.cls-6{fill:#387d4e;}.cls-7{fill:#fff;}.cls-8{fill:#4fb06d;}.cls-9{fill:#ced0f3;}.cls-10{fill:#92623c;}.cls-11{fill:#80492a;}.cls-12{fill:#885633;}.cls-13{fill:#0fbfbf;}.cls-14{fill:#301e10;}.cls-15{fill:#0b8484;}.cls-16{fill:#b7ecec;}.cls-17{fill:#ffcec2;}.cls-18,.cls-19{fill:#ff7a59;}.cls-18{opacity:0.31;}.cls-19{opacity:0.68;}.cls-20{fill:#5c62d6;}.cls-21{fill:#8589e0;}.cls-22{fill:#213343;}</style></defs><path class="cls-1" d="M74.83,137.1a57,57,0,1,1,57-57A57.06,57.06,0,0,1,74.83,137.1Zm0-112.31A55.31,55.31,0,1,0,130.14,80.1,55.38,55.38,0,0,0,74.83,24.79Z"/><circle class="cls-2" cx="115.32" cy="106.51" r="32.78"/><path class="cls-3" d="M115.79,115.61h0a11.16,11.16,0,0,1-5.57-1.48v6.16h11.3V114A11.17,11.17,0,0,1,115.79,115.61Z"/><path class="cls-4" d="M115.79,115.61h0a11.16,11.16,0,0,1-5.57-1.48v.32c2.55,2.31,7.77,2.09,7.77,2.09a15.89,15.89,0,0,0,3.53-.25V114A11.17,11.17,0,0,1,115.79,115.61Z"/><path class="cls-3" d="M115.79,83h0A11.19,11.19,0,0,0,104.6,94.2v10.22a11.19,11.19,0,0,0,11.19,11.19h0A11.19,11.19,0,0,0,127,104.42V94.2A11.19,11.19,0,0,0,115.79,83Z"/><path class="cls-5" d="M115.78,83h0a10.94,10.94,0,0,0-3,.42,11.19,11.19,0,0,1,8.16,10.77v10.25a11.19,11.19,0,0,1-8.16,10.77,10.94,10.94,0,0,0,3,.42h0A11.19,11.19,0,0,0,127,104.42V94.17A11.19,11.19,0,0,0,115.78,83Z"/><path class="cls-6" d="M121.85,117.25a9,9,0,0,1-12.14,0,17.31,17.31,0,0,0-11.21,16.2v1.18a32.8,32.8,0,0,0,34.59-.59v-.59A17.32,17.32,0,0,0,121.85,117.25Z"/><path class="cls-4" d="M113.71,100.93a2.08,2.08,0,0,0,4.16,0Z"/><path class="cls-7" d="M115.78,121.07a9,9,0,0,0,7-3.42l-1-.4a9,9,0,0,1-12.14,0l-1,.4A9,9,0,0,0,115.78,121.07Z"/><path class="cls-6" d="M123.71,93.22v5.54a1.93,1.93,0,0,0,1.93,1.93h0a1.93,1.93,0,0,0,1.93-1.93V93.22Z"/><path class="cls-6" d="M103.91,93.25v5.53a2,2,0,0,0,2,2h0a2,2,0,0,0,1.94-2V93.25Z"/><rect class="cls-3" x="103.07" y="98.18" width="2.99" height="7.58" rx="1.49"/><rect class="cls-3" x="125.52" y="98.18" width="2.99" height="7.58" rx="1.49"/><path class="cls-8" d="M123.36,83.86a7.44,7.44,0,0,0-14.87-.11,6.4,6.4,0,0,0-4.57,6.12v3.39h3.88V91.62a2,2,0,0,1,3.4-1.41,28,28,0,0,0,4.69,3.05,22,22,0,0,0,4.35-3,2,2,0,0,1,1.48-.66,2,2,0,0,1,2,2v1.64h3.88V89.87A6.39,6.39,0,0,0,123.36,83.86Z"/><path class="cls-6" d="M111.86,112.78a4.12,4.12,0,0,0,4.1,4.1h0a4.12,4.12,0,0,0,4.1-4.1v-.06a11,11,0,0,0-4.11-.78h0a11.14,11.14,0,0,0-4.09.77Z"/><rect class="cls-5" x="125.52" y="98.18" width="2.99" height="7.58" rx="1.49"/><path class="cls-1" d="M115.32,140a33.52,33.52,0,1,1,33.52-33.51A33.54,33.54,0,0,1,115.32,140Zm0-65.56a32,32,0,1,0,32,32.05A32.09,32.09,0,0,0,115.32,74.46Z"/><path class="cls-8" d="M94.45,95.38a4.61,4.61,0,0,0,3.71-3.69.08.08,0,0,1,.15,0A4.61,4.61,0,0,0,102,95.38a.07.07,0,0,1,0,.14,4.59,4.59,0,0,0-3.71,3.68.08.08,0,0,1-.15,0,4.59,4.59,0,0,0-3.71-3.68A.07.07,0,0,1,94.45,95.38Z"/><path class="cls-6" d="M87.83,99.58a4.64,4.64,0,0,0,3.72-3.69.07.07,0,0,1,.14,0,4.62,4.62,0,0,0,3.72,3.69.07.07,0,0,1,0,.14,4.6,4.6,0,0,0-3.72,3.69.07.07,0,0,1-.14,0,4.61,4.61,0,0,0-3.72-3.69A.07.07,0,0,1,87.83,99.58Z"/><path class="cls-7" d="M93.82,105.61a4.59,4.59,0,0,0,3.71-3.68.08.08,0,0,1,.15,0,4.59,4.59,0,0,0,3.71,3.68.08.08,0,0,1,0,.15,4.59,4.59,0,0,0-3.71,3.68.08.08,0,0,1-.15,0,4.59,4.59,0,0,0-3.71-3.68A.08.08,0,0,1,93.82,105.61Z"/><circle class="cls-9" cx="33.76" cy="106.51" r="32.51"/><path class="cls-1" d="M33.76,139.75A33.25,33.25,0,1,1,67,106.51,33.28,33.28,0,0,1,33.76,139.75Zm0-65a31.79,31.79,0,1,0,31.78,31.79A31.82,31.82,0,0,0,33.76,74.72Z"/><path class="cls-10" d="M33.12,114.66h0a11,11,0,0,1-5.49-1.46v6.07H38.76v-6.16A11,11,0,0,1,33.12,114.66Z"/><path class="cls-11" d="M33.12,114.66h0a11,11,0,0,1-5.49-1.46v.31c2.52,2.28,7.66,2.07,7.66,2.07a14.8,14.8,0,0,0,3.47-.26v-2.21A11,11,0,0,1,33.12,114.66Z"/><path class="cls-10" d="M33.12,82.54h0a11,11,0,0,0-11,11v10.07a11,11,0,0,0,11,11h0a11,11,0,0,0,11-11V93.56A11,11,0,0,0,33.12,82.54Z"/><path class="cls-12" d="M33.11,82.51h0a11.3,11.3,0,0,0-3,.41,11,11,0,0,1,8,10.62v10.09a11,11,0,0,1-8,10.62,10.9,10.9,0,0,0,3,.41h0a11,11,0,0,0,11-11V93.54A11,11,0,0,0,33.11,82.51Z"/><path class="cls-13" d="M39.09,116.28a8.85,8.85,0,0,1-12,0,17,17,0,0,0-11,16v.88a32.51,32.51,0,0,0,34.08.66v-1.54A17.05,17.05,0,0,0,39.09,116.28Z"/><path class="cls-12" d="M31.09,100.2a2.05,2.05,0,0,0,4.1,0Z"/><path class="cls-7" d="M33.1,120a8.84,8.84,0,0,0,6.95-3.37q-.48-.21-1-.39a8.85,8.85,0,0,1-12,0q-.49.18-1,.39A8.81,8.81,0,0,0,33.1,120Z"/><path class="cls-14" d="M30.05,101a3.64,3.64,0,0,0-3.62,3.64h0a.46.46,0,0,1-.83.29,4.75,4.75,0,0,1-.85-1.9,5.17,5.17,0,0,0-.08.89,4.64,4.64,0,0,0,4.64,4.64,4.57,4.57,0,0,0,2.38-.66A3.64,3.64,0,0,0,30.05,101Z"/><path class="cls-14" d="M35.83,101a3.63,3.63,0,0,1,3.61,3.64h0a.46.46,0,0,0,.83.29,4.49,4.49,0,0,0,.85-1.9,4.33,4.33,0,0,1,.09.89,4.64,4.64,0,0,1-7,4A3.65,3.65,0,0,1,35.83,101Z"/><rect class="cls-10" x="20.33" y="95.92" width="2.94" height="7.47" rx="1.47"/><rect class="cls-12" x="42.45" y="95.92" width="2.94" height="7.47" rx="1.47"/><path class="cls-14" d="M40.58,88V96.5a2,2,0,0,0,2,2h0a2,2,0,0,0,2-2V88Z"/><path class="cls-14" d="M21.29,87.91v8.58a2,2,0,0,0,2,2h0a2,2,0,0,0,2-2V87.91Z"/><path class="cls-14" d="M38.76,81.44h-11A6.46,6.46,0,0,0,21.3,87.9v3.42h3.92V89.67a2,2,0,0,1,2-2h0a2,2,0,0,1,1.43.59c1.22,1.23,8,1.36,9.13.08a2,2,0,0,1,1.49-.67h0a2,2,0,0,1,2,2v1.65h3.92V87.9A6.46,6.46,0,0,0,38.76,81.44Z"/><circle class="cls-14" cx="20.89" cy="92.61" r="3.82"/><circle class="cls-14" cx="24.1" cy="88.97" r="3.82"/><circle class="cls-14" cx="21.81" cy="87.11" r="3.82"/><circle class="cls-14" cx="45.35" cy="92.61" r="3.82"/><circle class="cls-14" cx="44.42" cy="87.11" r="3.82"/><circle class="cls-14" cx="24.24" cy="82.04" r="3.82"/><circle class="cls-14" cx="29.31" cy="86.07" r="3.82"/><circle class="cls-14" cx="29.31" cy="80.51" r="3.82"/><circle class="cls-14" cx="34.31" cy="86.94" r="3.82"/><circle class="cls-14" cx="34.67" cy="80.94" r="3.82"/><circle class="cls-14" cx="38.52" cy="80.23" r="3.82"/><circle class="cls-14" cx="39.16" cy="85.8" r="3.82"/><circle class="cls-14" cx="42.66" cy="82.73" r="3.82"/><path class="cls-13" d="M12.55,103.12A4,4,0,0,0,15.73,100a.07.07,0,0,1,.13,0A4,4,0,0,0,19,103.12a.06.06,0,0,1,0,.12,4,4,0,0,0-3.18,3.16.07.07,0,0,1-.13,0,3.94,3.94,0,0,0-3.18-3.16A.06.06,0,0,1,12.55,103.12Z"/><path class="cls-15" d="M6.88,106.72a4,4,0,0,0,3.18-3.16.06.06,0,0,1,.12,0,4,4,0,0,0,3.19,3.16.06.06,0,0,1,0,.12A4,4,0,0,0,10.18,110a.06.06,0,0,1-.12,0,4,4,0,0,0-3.18-3.16A.06.06,0,0,1,6.88,106.72Z"/><path class="cls-7" d="M12,111.9a4,4,0,0,0,3.18-3.16.07.07,0,0,1,.13,0,4,4,0,0,0,3.18,3.16.06.06,0,0,1,0,.12,4,4,0,0,0-3.18,3.16.07.07,0,0,1-.13,0A3.94,3.94,0,0,0,12,112,.06.06,0,0,1,12,111.9Z"/><circle class="cls-16" cx="74.83" cy="40.32" r="32.51"/><path class="cls-17" d="M75.54,50.58h0A11.7,11.7,0,0,1,69.69,49v6.46H81.54V48.92A11.65,11.65,0,0,1,75.54,50.58Z"/><path class="cls-18" d="M69.69,53.19l.93.92a1.68,1.68,0,0,0,1.92.32c.29-.15.38-.3.34-.46a1.4,1.4,0,0,1,.49-1.34l.07-.06a.68.68,0,0,0-.31-1.13,5.21,5.21,0,0,1-2.7-2c-.25-.12-.5-.25-.74-.39Z"/><path class="cls-19" d="M75.54,50.58h0A11.7,11.7,0,0,1,69.69,49v.33c2.68,2.43,8.16,2.2,8.16,2.2a16.1,16.1,0,0,0,3.69-.27V48.92A11.65,11.65,0,0,1,75.54,50.58Z"/><path class="cls-17" d="M75.54,16.36h0A11.75,11.75,0,0,0,63.79,28.11V38.83A11.75,11.75,0,0,0,75.54,50.58h0A11.75,11.75,0,0,0,87.28,38.83V28.11A11.75,11.75,0,0,0,75.54,16.36Z"/><path class="cls-18" d="M75.53,16.34h0a11.93,11.93,0,0,0-3.19.43A11.76,11.76,0,0,1,80.9,28.08V38.83a11.76,11.76,0,0,1-8.56,11.31,11.93,11.93,0,0,0,3.19.44h0A11.75,11.75,0,0,0,87.27,38.83V28.08A11.74,11.74,0,0,0,75.53,16.34Z"/><path class="cls-18" d="M73.37,35.17a2.19,2.19,0,0,0,4.37,0Z"/><path class="cls-20" d="M81.89,52.3a9.42,9.42,0,0,1-12.73,0A18.14,18.14,0,0,0,57.46,67.8a32.51,32.51,0,0,0,36.06-.88A18.16,18.16,0,0,0,81.89,52.3Z"/><path class="cls-21" d="M75.52,56.3a9.42,9.42,0,0,0,7.4-3.58c-.34-.15-.68-.29-1-.42a9.42,9.42,0,0,1-12.73,0c-.35.13-.69.27-1,.42A9.41,9.41,0,0,0,75.52,56.3Z"/><path class="cls-18" d="M63.8,35.75s.17-.28.37-.66a2.54,2.54,0,0,1,2.12-1.35,1.85,1.85,0,0,0,1.56-1s2.21-1.56,3.8-.75A.94.94,0,0,0,73,31.37a8,8,0,0,0,0-3,4.41,4.41,0,0,0-2.28-.72,3.12,3.12,0,0,0-1.2.23c-.34.13-1,.19-1.85-.61A2.06,2.06,0,0,0,64.9,29S64,29.86,63.8,35.75Z"/><path class="cls-17" d="M79,41.15s-.49-1,1.24-.93a9.4,9.4,0,0,0,2.31-.09c1-.19,2.68,0,3.79,2.19,0,0,1.05,3.61-5.13,1.51C81.25,43.83,82.65,42.55,79,41.15Z"/><path class="cls-18" d="M70,25.71A1.27,1.27,0,1,0,68.36,27a.6.6,0,0,0,.14.36.67.67,0,0,0,1.14-.69A1.27,1.27,0,0,0,70,25.71Z"/><path class="cls-15" d="M83.73,25.85v9.09A2.08,2.08,0,0,0,85.81,37h0a2.08,2.08,0,0,0,2.08-2.08V25.85Z"/><path class="cls-15" d="M62.89,27.64v7.29A2.1,2.1,0,0,0,65,37h0a2.1,2.1,0,0,0,2.09-2.09V27.64Z"/><path class="cls-13" d="M89,44.61a5.1,5.1,0,0,0,.53-6.41,5.1,5.1,0,0,0-.91-7V27.84A12.85,12.85,0,0,0,87,21.73h0l-.2-.36,0-.05a2.75,2.75,0,0,0-.17-.29l0-.06c-.14-.23-.29-.45-.44-.66l0-.06L85.88,20l0,0c-.08-.1-.16-.21-.25-.31l0,0c-.07-.09-.15-.17-.23-.26l0-.06c-.17-.2-.35-.38-.54-.57l-.06-.05c-.07-.08-.15-.15-.23-.23l-.06-.05-.29-.26h0l-.29-.24-.07-.06-.24-.18h0A7.8,7.8,0,0,0,75.74,9.8h0a7.8,7.8,0,0,0-7.8,7.78,12.85,12.85,0,0,0-5.11,10.26V32l1.87-3.71a9.28,9.28,0,0,0,13.86,0l.09,1.31a6.6,6.6,0,0,0,8.08,0s.64.89.6.88v8.32A11.73,11.73,0,0,1,82,48.57h0l-.51.31h0l-.53.3h0v1.22a4.47,4.47,0,0,1-.92,2.73l-.15.2a4.68,4.68,0,0,1-1.15,1.07A4.2,4.2,0,0,0,77,58.87a4.19,4.19,0,0,0,4.16,4.06h0A10.81,10.81,0,0,0,91.92,52.12h0A10.9,10.9,0,0,0,89,44.61ZM79.22,58.74h0Z"/><rect class="cls-17" x="85.75" y="31.21" width="3.13" height="7.96" rx="1.57"/><rect class="cls-18" x="85.75" y="31.21" width="3.13" height="7.96" rx="1.57"/><circle class="cls-22" cx="87.32" cy="38.46" r="1.09"/><rect class="cls-17" x="62.19" y="31.21" width="3.13" height="7.96" rx="1.57"/><circle class="cls-22" cx="63.68" cy="38.46" r="1.09"/><path class="cls-1" d="M74.83,73.57a33.25,33.25,0,1,1,33.25-33.25A33.28,33.28,0,0,1,74.83,73.57Zm0-65a31.78,31.78,0,1,0,31.78,31.78A31.82,31.82,0,0,0,74.83,8.54Z"/><path class="cls-21" d="M95.06,25.9a3.41,3.41,0,0,0,2.76-2.73.06.06,0,0,1,.11,0,3.41,3.41,0,0,0,2.76,2.73.06.06,0,0,1,0,.11,3.42,3.42,0,0,0-2.76,2.74.06.06,0,0,1-.11,0A3.42,3.42,0,0,0,95.06,26,.06.06,0,0,1,95.06,25.9Z"/><path class="cls-20" d="M90.15,29a3.42,3.42,0,0,0,2.76-2.73c0-.07.09-.07.1,0A3.42,3.42,0,0,0,95.77,29a.06.06,0,0,1,0,.11A3.43,3.43,0,0,0,93,31.87a.05.05,0,0,1-.1,0,3.43,3.43,0,0,0-2.76-2.74A.06.06,0,0,1,90.15,29Z"/><path class="cls-7" d="M94.59,33.51a3.43,3.43,0,0,0,2.76-2.74.06.06,0,0,1,.11,0,3.43,3.43,0,0,0,2.76,2.74.05.05,0,0,1,0,.1,3.43,3.43,0,0,0-2.76,2.74.06.06,0,0,1-.11,0,3.43,3.43,0,0,0-2.76-2.74A.05.05,0,0,1,94.59,33.51Z"/></svg>