<?xml version="1.0" encoding="UTF-8" standalone="no"?>
<!DOCTYPE svg PUBLIC "-//W3C//DTD SVG 1.1//EN" "http://www.w3.org/Graphics/SVG/1.1/DTD/svg11.dtd">
<svg width="100%" height="100%" viewBox="0 0 986 108" version="1.1" xmlns="http://www.w3.org/2000/svg" xmlns:xlink="http://www.w3.org/1999/xlink" xml:space="preserve" xmlns:serif="http://www.serif.com/" style="fill-rule:evenodd;clip-rule:evenodd;stroke-linejoin:round;stroke-miterlimit:2;">
    <g transform="matrix(1,0,0,1,-13971,-1464.23)">
        <g transform="matrix(1,0,0,1,12889.1,0)">
            <g id="Featured-Products-Heading" serif:id="Featured Products Heading">
                <g id="Group-5" serif:id="Group 5">
                    <g id="FEATURED------PRODUCTS" serif:id="FEATURED      PRODUCTS" transform="matrix(1.10646,2.38832e-16,0,1.10646,1572.68,1543.92)">
                        <g transform="matrix(72,0,0,72,-448.308,0)">
                            <path d="M0.252,-0L0.252,-0.264L0.547,-0.264L0.547,-0.397L0.252,-0.397L0.252,-0.569L0.613,-0.569L0.613,-0.73L0.065,-0.73L0.065,-0L0.252,-0Z" style="fill:rgb(33,33,33);fill-rule:nonzero;"/>
                        </g>
                        <g transform="matrix(72,0,0,72,-403.524,0)">
                            <path d="M0.634,-0L0.634,-0.157L0.247,-0.157L0.247,-0.301L0.54,-0.301L0.54,-0.434L0.247,-0.434L0.247,-0.575L0.626,-0.575L0.626,-0.73L0.065,-0.73L0.065,-0L0.634,-0Z" style="fill:rgb(33,33,33);fill-rule:nonzero;"/>
                        </g>
                        <g transform="matrix(72,0,0,72,-356.292,0)">
                            <path d="M0.197,-0L0.241,-0.127L0.523,-0.127L0.567,-0L0.76,-0L0.485,-0.73L0.278,-0.73L0.004,-0L0.197,-0ZM0.38,-0.547L0.395,-0.49L0.478,-0.255L0.285,-0.255L0.366,-0.49L0.38,-0.547Z" style="fill:rgb(33,33,33);fill-rule:nonzero;"/>
                        </g>
                        <g transform="matrix(72,0,0,72,-312.228,0)">
                            <path d="M0.249,-0.571L0.249,-0L0.436,-0L0.436,-0.571L0.652,-0.571L0.652,-0.73L0.034,-0.73L0.034,-0.571L0.249,-0.571Z" style="fill:rgb(33,33,33);fill-rule:nonzero;"/>
                        </g>
                        <g transform="matrix(72,0,0,72,-264.636,0)">
                            <path d="M0.504,-0.328C0.504,-0.215 0.472,-0.157 0.376,-0.157C0.284,-0.157 0.246,-0.212 0.246,-0.328L0.246,-0.73L0.059,-0.73L0.059,-0.308C0.059,-0.088 0.173,0.01 0.374,0.01C0.562,0.01 0.689,-0.092 0.689,-0.308L0.689,-0.73L0.504,-0.73L0.504,-0.328Z" style="fill:rgb(33,33,33);fill-rule:nonzero;"/>
                        </g>
                        <g transform="matrix(72,0,0,72,-212.652,0)">
                            <path d="M0.318,-0.254C0.42,-0.254 0.441,-0.236 0.47,-0.127L0.504,-0L0.71,-0L0.672,-0.129C0.648,-0.21 0.624,-0.26 0.583,-0.287C0.56,-0.3 0.532,-0.31 0.496,-0.315C0.627,-0.34 0.693,-0.418 0.693,-0.518C0.693,-0.646 0.6,-0.73 0.424,-0.73L0.065,-0.73L0.065,-0L0.252,-0L0.252,-0.254L0.318,-0.254ZM0.37,-0.576C0.463,-0.576 0.505,-0.542 0.505,-0.479C0.505,-0.418 0.458,-0.378 0.369,-0.378L0.252,-0.378L0.252,-0.576L0.37,-0.576Z" style="fill:rgb(33,33,33);fill-rule:nonzero;"/>
                        </g>
                        <g transform="matrix(72,0,0,72,-162.036,0)">
                            <path d="M0.634,-0L0.634,-0.157L0.247,-0.157L0.247,-0.301L0.54,-0.301L0.54,-0.434L0.247,-0.434L0.247,-0.575L0.626,-0.575L0.626,-0.73L0.065,-0.73L0.065,-0L0.634,-0Z" style="fill:rgb(33,33,33);fill-rule:nonzero;"/>
                        </g>
                        <g transform="matrix(72,0,0,72,-115.236,0)">
                            <path d="M0.35,-0C0.598,-0 0.732,-0.155 0.732,-0.371C0.732,-0.603 0.594,-0.73 0.345,-0.73L0.065,-0.73L0.065,-0L0.35,-0ZM0.33,-0.575C0.473,-0.575 0.538,-0.513 0.538,-0.37C0.538,-0.234 0.474,-0.152 0.337,-0.152L0.252,-0.152L0.252,-0.575L0.33,-0.575Z" style="fill:rgb(33,33,33);fill-rule:nonzero;"/>
                        </g>
                        <g transform="matrix(72,0,0,72,35.244,0)">
                            <path d="M0.379,-0.201C0.594,-0.201 0.699,-0.318 0.699,-0.47C0.699,-0.623 0.601,-0.73 0.387,-0.73L0.065,-0.73L0.065,-0L0.252,-0L0.252,-0.201L0.379,-0.201ZM0.366,-0.572C0.462,-0.572 0.51,-0.532 0.51,-0.451C0.51,-0.372 0.46,-0.328 0.364,-0.328L0.252,-0.328L0.252,-0.572L0.366,-0.572Z" style="fill:rgb(33,33,33);fill-rule:nonzero;"/>
                        </g>
                        <g transform="matrix(72,0,0,72,85.932,0)">
                            <path d="M0.318,-0.254C0.42,-0.254 0.441,-0.236 0.47,-0.127L0.504,-0L0.71,-0L0.672,-0.129C0.648,-0.21 0.624,-0.26 0.583,-0.287C0.56,-0.3 0.532,-0.31 0.496,-0.315C0.627,-0.34 0.693,-0.418 0.693,-0.518C0.693,-0.646 0.6,-0.73 0.424,-0.73L0.065,-0.73L0.065,-0L0.252,-0L0.252,-0.254L0.318,-0.254ZM0.37,-0.576C0.463,-0.576 0.505,-0.542 0.505,-0.479C0.505,-0.418 0.458,-0.378 0.369,-0.378L0.252,-0.378L0.252,-0.576L0.37,-0.576Z" style="fill:rgb(33,33,33);fill-rule:nonzero;"/>
                        </g>
                        <g transform="matrix(72,0,0,72,136.476,0)">
                            <path d="M0.403,0.01C0.648,0.01 0.774,-0.159 0.774,-0.365C0.774,-0.571 0.653,-0.74 0.406,-0.74C0.172,-0.74 0.039,-0.569 0.039,-0.365C0.039,-0.159 0.156,0.01 0.403,0.01ZM0.405,-0.15C0.289,-0.15 0.234,-0.233 0.234,-0.365C0.234,-0.5 0.298,-0.582 0.407,-0.582C0.519,-0.582 0.579,-0.501 0.579,-0.365C0.579,-0.23 0.52,-0.15 0.405,-0.15Z" style="fill:rgb(33,33,33);fill-rule:nonzero;"/>
                        </g>
                        <g transform="matrix(72,0,0,72,193.068,0)">
                            <path d="M0.35,-0C0.598,-0 0.732,-0.155 0.732,-0.371C0.732,-0.603 0.594,-0.73 0.345,-0.73L0.065,-0.73L0.065,-0L0.35,-0ZM0.33,-0.575C0.473,-0.575 0.538,-0.513 0.538,-0.37C0.538,-0.234 0.474,-0.152 0.337,-0.152L0.252,-0.152L0.252,-0.575L0.33,-0.575Z" style="fill:rgb(33,33,33);fill-rule:nonzero;"/>
                        </g>
                        <g transform="matrix(72,0,0,72,246.852,0)">
                            <path d="M0.504,-0.328C0.504,-0.215 0.472,-0.157 0.376,-0.157C0.284,-0.157 0.246,-0.212 0.246,-0.328L0.246,-0.73L0.059,-0.73L0.059,-0.308C0.059,-0.088 0.173,0.01 0.374,0.01C0.562,0.01 0.689,-0.092 0.689,-0.308L0.689,-0.73L0.504,-0.73L0.504,-0.328Z" style="fill:rgb(33,33,33);fill-rule:nonzero;"/>
                        </g>
                        <g transform="matrix(72,0,0,72,298.908,0)">
                            <path d="M0.759,-0.476C0.725,-0.633 0.611,-0.74 0.41,-0.74C0.172,-0.74 0.039,-0.569 0.039,-0.365C0.039,-0.161 0.137,0.01 0.404,0.01C0.616,0.01 0.733,-0.114 0.765,-0.29L0.566,-0.32C0.554,-0.22 0.507,-0.149 0.402,-0.149C0.286,-0.149 0.234,-0.233 0.234,-0.365C0.234,-0.5 0.296,-0.582 0.407,-0.582C0.503,-0.582 0.549,-0.523 0.564,-0.428L0.759,-0.476Z" style="fill:rgb(33,33,33);fill-rule:nonzero;"/>
                        </g>
                        <g transform="matrix(72,0,0,72,352.62,0)">
                            <path d="M0.249,-0.571L0.249,-0L0.436,-0L0.436,-0.571L0.652,-0.571L0.652,-0.73L0.034,-0.73L0.034,-0.571L0.249,-0.571Z" style="fill:rgb(33,33,33);fill-rule:nonzero;"/>
                        </g>
                        <g transform="matrix(72,0,0,72,400.068,0)">
                            <path d="M0.005,-0.132C0.081,-0.045 0.183,0.011 0.35,0.011C0.437,0.011 0.506,-0.01 0.557,-0.051C0.608,-0.093 0.633,-0.148 0.633,-0.215C0.633,-0.283 0.609,-0.332 0.562,-0.362C0.515,-0.393 0.45,-0.415 0.366,-0.429C0.251,-0.446 0.201,-0.46 0.201,-0.512C0.201,-0.549 0.233,-0.582 0.305,-0.582C0.396,-0.582 0.454,-0.544 0.499,-0.479L0.649,-0.597C0.562,-0.701 0.453,-0.743 0.32,-0.743C0.138,-0.743 0.035,-0.642 0.035,-0.519C0.035,-0.383 0.13,-0.337 0.28,-0.313C0.403,-0.292 0.463,-0.278 0.463,-0.225C0.463,-0.184 0.43,-0.153 0.362,-0.153C0.266,-0.153 0.206,-0.193 0.153,-0.258L0.005,-0.132Z" style="fill:rgb(33,33,33);fill-rule:nonzero;"/>
                        </g>
                    </g>
                    <g transform="matrix(2.63864,0,0,2.63864,1459.86,1272.02)">
                        <path d="M37.194,96.496L23.811,112.293C22.07,114.034 19.247,114.034 17.505,112.293C15.764,110.552 15.764,107.728 17.505,105.987L33.648,92.31L17.504,73.254C17.412,73.159 17.412,73.008 17.506,72.915C17.598,72.821 17.754,72.822 17.846,72.915L37.194,89.306L56.545,72.914C56.639,72.821 56.79,72.821 56.884,72.915C56.977,73.008 56.976,73.163 56.883,73.256L40.74,92.31L56.884,105.987C58.625,107.728 58.625,110.552 56.884,112.293C55.142,114.034 52.319,114.034 50.577,112.293L37.194,96.496ZM43.335,98.744C43.31,98.769 43.31,98.81 43.335,98.836L52.278,109.393C52.749,109.864 53.513,109.864 53.984,109.393C54.455,108.922 54.455,108.159 53.984,107.688L43.427,98.744C43.402,98.719 43.36,98.719 43.335,98.744ZM31.054,98.744C31.029,98.719 30.988,98.719 30.962,98.744L20.405,107.688C19.934,108.159 19.934,108.922 20.405,109.393C20.876,109.864 21.639,109.864 22.111,109.393L31.054,98.837C31.079,98.811 31.079,98.769 31.054,98.744Z" style="fill:rgb(0,122,179);"/>
                    </g>
                </g>
            </g>
        </g>
    </g>
</svg>
