<svg id="Layer_2" data-name="Layer 2" xmlns="http://www.w3.org/2000/svg" xmlns:xlink="http://www.w3.org/1999/xlink" viewBox="0 0 128 128"><defs><style>.cls-1{fill:none;}.cls-2{fill:#a6e0e8;}.cls-3{fill:#57d2d2;}.cls-4{clip-path:url(#clip-path);}.cls-5{fill:#0fbfbf;}.cls-6{clip-path:url(#clip-path-2);}.cls-7{isolation:isolate;}.cls-8{fill:#b7ecec;}.cls-9{clip-path:url(#clip-path-3);}.cls-10{fill:#56d2d2;}.cls-11{fill:#0068b1;}.cls-12{clip-path:url(#clip-path-4);}.cls-13{fill:#ffa766;}.cls-14{fill:#cc6d29;opacity:0.65;}.cls-15{fill:#f99450;}.cls-16{fill:#ff5c35;}.cls-17{fill:#fff;}.cls-18{fill:#ffbc4b;}.cls-19{clip-path:url(#clip-path-5);}.cls-20{fill:#a85a33;}.cls-21{fill:#964f2f;}.cls-22{fill:#bb6536;}.cls-23{fill:#00497d;}</style><clipPath id="clip-path"><rect class="cls-1" x="64.41" y="5.77" width="68.8" height="141.15"/></clipPath><clipPath id="clip-path-2"><path class="cls-1" d="M112,64A47.74,47.74,0,1,1,64.24,16.22,47.73,47.73,0,0,1,112,64Z"/></clipPath><clipPath id="clip-path-3"><rect class="cls-1" x="64.11" y="13.19" width="64.64" height="111.79"/></clipPath><clipPath id="clip-path-4"><circle class="cls-1" cx="103.53" cy="103.14" r="17.67"/></clipPath><clipPath id="clip-path-5"><circle class="cls-1" cx="22.91" cy="21.67" r="17.67"/></clipPath></defs><path class="cls-2" d="M112,64A47.74,47.74,0,1,1,64.24,16.22,47.73,47.73,0,0,1,112,64Z"/><path class="cls-3" d="M112,64A47.74,47.74,0,1,1,64.24,16.22,47.73,47.73,0,0,1,112,64Z"/><path class="cls-1" d="M112,64A47.74,47.74,0,1,1,64.24,16.22,47.73,47.73,0,0,1,112,64Z"/><g class="cls-4"><path class="cls-5" d="M112,64A47.74,47.74,0,1,1,64.24,16.22,47.73,47.73,0,0,1,112,64Z"/></g><g class="cls-6"><g class="cls-7"><path class="cls-8" d="M74.13,70.8H66.19a3.44,3.44,0,0,0-2.3-6H56a1.89,1.89,0,0,0-1.87-1.63H50.38v0A1.43,1.43,0,0,0,49,61.69H46.71a2,2,0,0,0-1.11-3.62H42.71a1.72,1.72,0,0,0,.35-1,1.56,1.56,0,0,0-.11-.57,1.93,1.93,0,0,0,1.78-1.91,2,2,0,0,0-.09-.55H52.3a3.7,3.7,0,0,0,3.7-3.7,3.67,3.67,0,0,0-.08-.75,5,5,0,0,0,5-5h7.57a4,4,0,0,0,0-8.06H57.79A4,4,0,0,0,55,37.63a4,4,0,0,0,.17-1.15,4.1,4.1,0,0,0-.62-2.16,3.85,3.85,0,0,0,.61-2H69.76a2,2,0,0,0,0-4H25.2a3.89,3.89,0,0,0,0,7.78h8a2.3,2.3,0,0,0,0,.37,4.11,4.11,0,0,0,1.33,3h-1a5,5,0,0,0-3,9.07,3.65,3.65,0,0,0-.43,1.74,3.7,3.7,0,0,0,3.7,3.7h.5a2,2,0,0,0-.09.55A1.91,1.91,0,0,0,35.6,56.4a1.75,1.75,0,0,0-.13.65,1.67,1.67,0,0,0,1.67,1.67h.33A2,2,0,0,0,38.93,62h2.25a1.41,1.41,0,0,0-.51,1.08,1.43,1.43,0,0,0,1.42,1.43h2.73a2.17,2.17,0,0,0-.08.52,1.9,1.9,0,0,0,1.9,1.9h4.74a3.64,3.64,0,0,0-.24,1.28,3.43,3.43,0,0,0,1.6,2.9,4.66,4.66,0,0,0,1.64,9A3.81,3.81,0,0,0,57,86.71h1.49a3.08,3.08,0,0,0,1.43,5.15,2.45,2.45,0,0,0-.62,1.62,2.42,2.42,0,0,0,.69,1.7,2.22,2.22,0,0,0,.45,3.61,1.49,1.49,0,0,0,.75,2.77h1.18a1.18,1.18,0,1,0,0,2.36h3.81a1.18,1.18,0,1,0,0-2.36h.18a1.49,1.49,0,0,0,1-2.58A2.23,2.23,0,0,0,69,96.83a2.18,2.18,0,0,0-.33-1.16A2.43,2.43,0,0,0,69.53,92a3.08,3.08,0,0,0,2.13-5.25H73A3.8,3.8,0,0,0,75.37,80a4.67,4.67,0,0,0-1.24-9.17ZM53.92,39.41s0,.06,0,.1h-.08Z"/><path class="cls-8" d="M122.25,65.15h-2.6a3.91,3.91,0,0,0-3.91-3.91h-.86a3.75,3.75,0,0,0-1.78-5.92,1.9,1.9,0,0,0,.07-.54,2.28,2.28,0,0,0-2.29-2.29h-5A3,3,0,0,0,103,50.35H90.75a3,3,0,0,0-2.37,4.79h-.72A3.75,3.75,0,0,0,86,62.26a3.91,3.91,0,0,0,2.63,6.8H99.28a3.11,3.11,0,0,0-.15.92,3,3,0,0,0,2.06,2.85,2.93,2.93,0,0,0-.36,1.41,2.86,2.86,0,0,0,2.51,2.84,3.14,3.14,0,0,0-.11,4.75,2.24,2.24,0,0,0,0,4.43,2.19,2.19,0,0,0-.3,1.1,2.13,2.13,0,0,0,1.86,2.12,1.73,1.73,0,0,0-.34,1,1.76,1.76,0,0,0,1.76,1.77H111a1.77,1.77,0,0,0,1.77-1.77,1.75,1.75,0,0,0-.39-1.09A2.13,2.13,0,0,0,114,87.36a2.21,2.21,0,0,0-.29-1.08,2.24,2.24,0,0,0,2-2.23,2.29,2.29,0,0,0-.49-1.4h.23a3.14,3.14,0,0,0,1-6.11,2.85,2.85,0,0,0,1.17-2.3,2.91,2.91,0,0,0-.29-1.25h.14a3,3,0,0,0,3-3h1.73a2.42,2.42,0,0,0,0-4.83Z"/><path class="cls-8" d="M159.6,61.24a2,2,0,0,0,.18-3.05h2a4.14,4.14,0,1,0,0-8.28H160.6a3.1,3.1,0,0,0,.6-1.82,3,3,0,0,0-.79-2h3.9A5.41,5.41,0,0,0,167,35.93l.07-.16h11.1a2.45,2.45,0,0,0,0-4.89H166.39A4.44,4.44,0,0,0,163,29.35H151.5a3,3,0,0,0-2.82-1.93H126.41a3,3,0,0,0-2.82,1.93h-9.88a4.45,4.45,0,0,0-3.08,1.23h-8.94a2.34,2.34,0,0,0,0,4.67h7.79a3.12,3.12,0,0,0,.15.39,5.44,5.44,0,0,0-2.27,1.74h-6.25A3.18,3.18,0,0,0,98,40.31H96.89a1.7,1.7,0,0,0-1.68,1.4h-.72A2,2,0,0,0,93,45H90.28a2,2,0,1,0,0,3.95h3.45a2,2,0,0,0,2-2,2,2,0,0,0-.46-1.25h1.61a2,2,0,0,0,2-2h3.28a2,2,0,0,0,0,.25,2.27,2.27,0,0,0,2.26,2.27h3.41a2.71,2.71,0,0,0,.4,0,2.2,2.2,0,0,0-.56,1.47,2.23,2.23,0,0,0,2.23,2.23h4.5a2.14,2.14,0,0,0-.4,1.25,2.18,2.18,0,0,0,.81,1.69,2.39,2.39,0,0,0,1.79,4h.6a3.05,3.05,0,0,0,2.74,4.39h6.32a3,3,0,0,0,3.05-3.05c0-.13,0-.25,0-.37a4,4,0,0,0,1.7.37h5a1.92,1.92,0,0,0,1.13,3.48H138a2.25,2.25,0,0,0-.35,1.2,2.29,2.29,0,0,0,2.28,2.28h.76a.76.76,0,0,0,0,1.52H142a.76.76,0,1,0,0-1.52h0a2.28,2.28,0,0,0,2.28-2.28,2.33,2.33,0,0,0-.34-1.2h.63a1.92,1.92,0,0,0,1.13-3.48h4.11a2,2,0,0,0,1.43,3.48h1a2.19,2.19,0,0,0-.39,1.26,2.22,2.22,0,0,0,2.21,2.22h4.24a2.23,2.23,0,0,0,2.22-2.22A2.2,2.2,0,0,0,159.6,61.24Zm-35-6.1a2.26,2.26,0,0,0,.1-.69,2.4,2.4,0,0,0-1.55-2.25,2.15,2.15,0,0,0,.27-1A2.19,2.19,0,0,0,121.2,49h-2a2.22,2.22,0,0,0-.29-2.93H125a3,3,0,0,0-.79,2,3.06,3.06,0,0,0,3.07,3.07H128a4.1,4.1,0,0,0-1.18,2.89,4.23,4.23,0,0,0,.17,1.19,3.1,3.1,0,0,0-.76-.1Z"/><path class="cls-8" d="M89.53,39.88h1.81a.8.8,0,0,0,0-1.6H89.53a.8.8,0,0,0,0,1.6Z"/><path class="cls-8" d="M92.77,37.85H93a1.21,1.21,0,0,0,1,1.87h.87a1.22,1.22,0,0,0,1.22-1.22,1.21,1.21,0,0,0-.74-1.11,1.06,1.06,0,0,0,.17-.58,1,1,0,0,0-1-1h-1.7a1,1,0,1,0,0,2.08Z"/></g><g class="cls-9"><g class="cls-7"><path class="cls-10" d="M74.13,70.8H66.19a3.44,3.44,0,0,0-2.3-6H56a1.89,1.89,0,0,0-1.87-1.63H50.38v0A1.43,1.43,0,0,0,49,61.69H46.71a2,2,0,0,0-1.11-3.62H42.71a1.72,1.72,0,0,0,.35-1,1.56,1.56,0,0,0-.11-.57,1.93,1.93,0,0,0,1.78-1.91,2,2,0,0,0-.09-.55H52.3a3.7,3.7,0,0,0,3.7-3.7,3.67,3.67,0,0,0-.08-.75,5,5,0,0,0,5-5h7.57a4,4,0,0,0,0-8.06H57.79A4,4,0,0,0,55,37.63a4,4,0,0,0,.17-1.15,4.1,4.1,0,0,0-.62-2.16,3.85,3.85,0,0,0,.61-2H69.76a2,2,0,0,0,0-4H25.2a3.89,3.89,0,0,0,0,7.78h8a2.3,2.3,0,0,0,0,.37,4.11,4.11,0,0,0,1.33,3h-1a5,5,0,0,0-3,9.07,3.65,3.65,0,0,0-.43,1.74,3.7,3.7,0,0,0,3.7,3.7h.5a2,2,0,0,0-.09.55A1.91,1.91,0,0,0,35.6,56.4a1.75,1.75,0,0,0-.13.65,1.67,1.67,0,0,0,1.67,1.67h.33A2,2,0,0,0,38.93,62h2.25a1.41,1.41,0,0,0-.51,1.08,1.43,1.43,0,0,0,1.42,1.43h2.73a2.17,2.17,0,0,0-.08.52,1.9,1.9,0,0,0,1.9,1.9h4.74a3.64,3.64,0,0,0-.24,1.28,3.43,3.43,0,0,0,1.6,2.9,4.66,4.66,0,0,0,1.64,9A3.81,3.81,0,0,0,57,86.71h1.49a3.08,3.08,0,0,0,1.43,5.15,2.45,2.45,0,0,0-.62,1.62,2.42,2.42,0,0,0,.69,1.7,2.22,2.22,0,0,0,.45,3.61,1.49,1.49,0,0,0,.75,2.77h1.18a1.18,1.18,0,1,0,0,2.36h3.81a1.18,1.18,0,1,0,0-2.36h.18a1.49,1.49,0,0,0,1-2.58A2.23,2.23,0,0,0,69,96.83a2.18,2.18,0,0,0-.33-1.16A2.43,2.43,0,0,0,69.53,92a3.08,3.08,0,0,0,2.13-5.25H73A3.8,3.8,0,0,0,75.37,80a4.67,4.67,0,0,0-1.24-9.17ZM53.92,39.41s0,.06,0,.1h-.08Z"/><path class="cls-10" d="M122.25,65.15h-2.6a3.91,3.91,0,0,0-3.91-3.91h-.86a3.75,3.75,0,0,0-1.78-5.92,1.9,1.9,0,0,0,.07-.54,2.28,2.28,0,0,0-2.29-2.29h-5A3,3,0,0,0,103,50.35H90.75a3,3,0,0,0-2.37,4.79h-.72A3.75,3.75,0,0,0,86,62.26a3.91,3.91,0,0,0,2.63,6.8H99.28a3.11,3.11,0,0,0-.15.92,3,3,0,0,0,2.06,2.85,2.93,2.93,0,0,0-.36,1.41,2.86,2.86,0,0,0,2.51,2.84,3.14,3.14,0,0,0-.11,4.75,2.24,2.24,0,0,0,0,4.43,2.19,2.19,0,0,0-.3,1.1,2.13,2.13,0,0,0,1.86,2.12,1.73,1.73,0,0,0-.34,1,1.76,1.76,0,0,0,1.76,1.77H111a1.77,1.77,0,0,0,1.77-1.77,1.75,1.75,0,0,0-.39-1.09A2.13,2.13,0,0,0,114,87.36a2.21,2.21,0,0,0-.29-1.08,2.24,2.24,0,0,0,2-2.23,2.29,2.29,0,0,0-.49-1.4h.23a3.14,3.14,0,0,0,1-6.11,2.85,2.85,0,0,0,1.17-2.3,2.91,2.91,0,0,0-.29-1.25h.14a3,3,0,0,0,3-3h1.73a2.42,2.42,0,0,0,0-4.83Z"/><path class="cls-10" d="M159.6,61.24a2,2,0,0,0,.18-3.05h2a4.14,4.14,0,1,0,0-8.28H160.6a3.1,3.1,0,0,0,.6-1.82,3,3,0,0,0-.79-2h3.9A5.41,5.41,0,0,0,167,35.93l.07-.16h11.1a2.45,2.45,0,0,0,0-4.89H166.39A4.44,4.44,0,0,0,163,29.35H151.5a3,3,0,0,0-2.82-1.93H126.41a3,3,0,0,0-2.82,1.93h-9.88a4.45,4.45,0,0,0-3.08,1.23h-8.94a2.34,2.34,0,0,0,0,4.67h7.79a3.12,3.12,0,0,0,.15.39,5.44,5.44,0,0,0-2.27,1.74h-6.25A3.18,3.18,0,0,0,98,40.31H96.89a1.7,1.7,0,0,0-1.68,1.4h-.72A2,2,0,0,0,93,45H90.28a2,2,0,1,0,0,3.95h3.45a2,2,0,0,0,2-2,2,2,0,0,0-.46-1.25h1.61a2,2,0,0,0,2-2h3.28a2,2,0,0,0,0,.25,2.27,2.27,0,0,0,2.26,2.27h3.41a2.71,2.71,0,0,0,.4,0,2.2,2.2,0,0,0-.56,1.47,2.23,2.23,0,0,0,2.23,2.23h4.5a2.14,2.14,0,0,0-.4,1.25,2.18,2.18,0,0,0,.81,1.69,2.39,2.39,0,0,0,1.79,4h.6a3.05,3.05,0,0,0,2.74,4.39h6.32a3,3,0,0,0,3.05-3.05c0-.13,0-.25,0-.37a4,4,0,0,0,1.7.37h5a1.92,1.92,0,0,0,1.13,3.48H138a2.25,2.25,0,0,0-.35,1.2,2.29,2.29,0,0,0,2.28,2.28h.76a.76.76,0,0,0,0,1.52H142a.76.76,0,1,0,0-1.52h0a2.28,2.28,0,0,0,2.28-2.28,2.33,2.33,0,0,0-.34-1.2h.63a1.92,1.92,0,0,0,1.13-3.48h4.11a2,2,0,0,0,1.43,3.48h1a2.19,2.19,0,0,0-.39,1.26,2.22,2.22,0,0,0,2.21,2.22h4.24a2.23,2.23,0,0,0,2.22-2.22A2.2,2.2,0,0,0,159.6,61.24Zm-35-6.1a2.26,2.26,0,0,0,.1-.69,2.4,2.4,0,0,0-1.55-2.25,2.15,2.15,0,0,0,.27-1A2.19,2.19,0,0,0,121.2,49h-2a2.22,2.22,0,0,0-.29-2.93H125a3,3,0,0,0-.79,2,3.06,3.06,0,0,0,3.07,3.07H128a4.1,4.1,0,0,0-1.18,2.89,4.23,4.23,0,0,0,.17,1.19,3.1,3.1,0,0,0-.76-.1Z"/><path class="cls-10" d="M89.53,39.88h1.81a.8.8,0,0,0,0-1.6H89.53a.8.8,0,0,0,0,1.6Z"/><path class="cls-10" d="M92.77,37.85H93a1.21,1.21,0,0,0,1,1.87h.87a1.22,1.22,0,0,0,1.22-1.22,1.21,1.21,0,0,0-.74-1.11,1.06,1.06,0,0,0,.17-.58,1,1,0,0,0-1-1h-1.7a1,1,0,1,0,0,2.08Z"/></g></g></g><circle class="cls-11" cx="103.53" cy="103.14" r="17.67"/><g class="cls-12"><path class="cls-13" d="M103.55,112.44h0a7.76,7.76,0,0,1-3.92-1v4.34h8v-4.4A7.89,7.89,0,0,1,103.55,112.44Z"/><path class="cls-14" d="M103.55,112.44h0a7.76,7.76,0,0,1-3.92-1v.23c1.8,1.63,5.47,1.47,5.47,1.47a10.71,10.71,0,0,0,2.48-.18v-1.58A7.89,7.89,0,0,1,103.55,112.44Z"/><path class="cls-13" d="M103.55,89.48h0a7.88,7.88,0,0,0-7.88,7.88v7.2a7.88,7.88,0,0,0,7.88,7.88h0a7.88,7.88,0,0,0,7.88-7.88v-7.2A7.88,7.88,0,0,0,103.55,89.48Z"/><path class="cls-15" d="M103.54,89.46h0a7.88,7.88,0,0,0-2.13.3,7.88,7.88,0,0,1,5.74,7.58v7.22a7.88,7.88,0,0,1-5.74,7.58,7.88,7.88,0,0,0,2.13.3h0a7.88,7.88,0,0,0,7.88-7.88V97.34A7.88,7.88,0,0,0,103.54,89.46Z"/><path class="cls-16" d="M107.82,113.59a6.32,6.32,0,0,1-8.55,0A12.17,12.17,0,0,0,91.38,125v6h24.35v-6A12.19,12.19,0,0,0,107.82,113.59Z"/><path class="cls-17" d="M103.54,116.28a6.32,6.32,0,0,0,5-2.4c-.22-.11-.45-.2-.68-.29a6.32,6.32,0,0,1-8.55,0l-.69.28A6.32,6.32,0,0,0,103.54,116.28Z"/><path class="cls-15" d="M102.1,102.1a1.47,1.47,0,0,0,2.93,0Z"/></g><circle class="cls-18" cx="22.91" cy="21.67" r="17.67"/><g class="cls-19"><path class="cls-20" d="M22.93,30.93h0a7.82,7.82,0,0,1-3.91-1V34.2h7.92V29.82A7.81,7.81,0,0,1,22.93,30.93Z"/><path class="cls-21" d="M22.93,30.93h0a7.82,7.82,0,0,1-3.91-1v.22c1.79,1.62,5.45,1.47,5.45,1.47a11.24,11.24,0,0,0,2.47-.18V29.82A7.81,7.81,0,0,1,22.93,30.93Z"/><path class="cls-22" d="M22.93,8.08h0a7.84,7.84,0,0,0-7.85,7.84v7.16a7.84,7.84,0,0,0,7.85,7.85h0a7.84,7.84,0,0,0,7.84-7.85V15.92A7.84,7.84,0,0,0,22.93,8.08Z"/><path class="cls-20" d="M22.92,8.06h0a7.88,7.88,0,0,0-2.13.29,7.85,7.85,0,0,1,5.72,7.55v7.18a7.83,7.83,0,0,1-5.72,7.55,7.51,7.51,0,0,0,2.13.3h0a7.84,7.84,0,0,0,7.84-7.85V15.9A7.84,7.84,0,0,0,22.92,8.06Z"/><path class="cls-23" d="M27.17,32.08a6.3,6.3,0,0,1-8.5,0,12.14,12.14,0,0,0-7.86,11.35v6H35.05v-6A12.12,12.12,0,0,0,27.17,32.08Z"/><path class="cls-20" d="M21.48,20.64a1.46,1.46,0,0,0,2.92,0Z"/><path class="cls-17" d="M22.92,34.75a6.29,6.29,0,0,0,4.94-2.39c-.23-.1-.46-.2-.69-.28a6.3,6.3,0,0,1-8.5,0l-.69.29A6.31,6.31,0,0,0,22.92,34.75Z"/></g></svg>