<?xml version="1.0" encoding="UTF-8"?>
<svg xmlns="http://www.w3.org/2000/svg" xmlns:xlink="http://www.w3.org/1999/xlink" width="227px" height="64px" viewBox="0 0 227 64" version="1.1">
<defs>
<filter id="alpha" filterUnits="objectBoundingBox" x="0%" y="0%" width="100%" height="100%">
  <feColorMatrix type="matrix" in="SourceGraphic" values="0 0 0 0 1 0 0 0 0 1 0 0 0 0 1 0 0 0 1 0"/>
</filter>
<mask id="mask0">
  <g filter="url(#alpha)">
<rect x="0" y="0" width="227" height="64" style="fill:rgb(0%,0%,0%);fill-opacity:0.0313725;stroke:none;"/>
  </g>
</mask>
<clipPath id="clip1">
  <rect x="0" y="0" width="227" height="64"/>
</clipPath>
<g id="surface5" clip-path="url(#clip1)">
<path style=" stroke:none;fill-rule:evenodd;fill:rgb(0%,9.803922%,14.117647%);fill-opacity:1;" d="M 23.886719 3.382812 C 20.210938 3.347656 16.550781 3.382812 12.914062 3.492188 C 12.851562 3.488281 12.816406 3.449219 12.800781 3.382812 C 16.515625 3.234375 20.210938 3.234375 23.886719 3.382812 Z M 23.886719 3.382812 "/>
</g>
<mask id="mask1">
  <g filter="url(#alpha)">
<rect x="0" y="0" width="227" height="64" style="fill:rgb(0%,0%,0%);fill-opacity:0.568627;stroke:none;"/>
  </g>
</mask>
<clipPath id="clip2">
  <rect x="0" y="0" width="227" height="64"/>
</clipPath>
<g id="surface8" clip-path="url(#clip2)">
<path style=" stroke:none;fill-rule:evenodd;fill:rgb(0%,27.45098%,40%);fill-opacity:1;" d="M 32.640625 6.710938 C 32.722656 6.757812 32.777344 6.832031 32.808594 6.933594 C 32.902344 23.476562 32.882812 40.003906 32.753906 56.511719 C 32.789062 39.910156 32.753906 23.308594 32.640625 6.710938 Z M 32.640625 6.710938 "/>
</g>
<mask id="mask2">
  <g filter="url(#alpha)">
<rect x="0" y="0" width="227" height="64" style="fill:rgb(0%,0%,0%);fill-opacity:0.980392;stroke:none;"/>
  </g>
</mask>
<clipPath id="clip3">
  <rect x="0" y="0" width="227" height="64"/>
</clipPath>
<g id="surface11" clip-path="url(#clip3)">
<path style=" stroke:none;fill-rule:evenodd;fill:rgb(0%,47.45098%,70.196078%);fill-opacity:1;" d="M 80.746094 8.707031 C 86.042969 8.515625 88.132812 10.992188 87.007812 16.136719 C 86.664062 16.890625 86.128906 17.464844 85.402344 17.859375 C 86.480469 18.234375 87.238281 18.957031 87.675781 20.019531 C 88.488281 22.46875 87.992188 24.597656 86.179688 26.398438 C 85.097656 27.078125 83.914062 27.445312 82.632812 27.507812 C 80.734375 27.71875 78.921875 27.425781 77.199219 26.621094 C 75.375 25.246094 74.652344 23.414062 75.039062 21.128906 C 75.242188 19.558594 76.074219 18.46875 77.53125 17.859375 C 76.152344 16.921875 75.484375 15.609375 75.539062 13.921875 C 75.6875 10.589844 77.425781 8.851562 80.746094 8.707031 Z M 81.300781 12.476562 C 81.632812 12.449219 81.910156 12.5625 82.132812 12.8125 C 82.605469 13.753906 82.640625 14.714844 82.242188 15.695312 C 81.804688 16.242188 81.324219 16.28125 80.800781 15.804688 C 80.480469 14.933594 80.441406 14.046875 80.691406 13.144531 C 80.84375 12.863281 81.046875 12.640625 81.300781 12.476562 Z M 81.191406 20.019531 C 81.941406 19.941406 82.40625 20.273438 82.574219 21.019531 C 82.835938 21.898438 82.761719 22.75 82.355469 23.570312 C 81.339844 24.203125 80.675781 23.941406 80.359375 22.792969 C 80.269531 22.15625 80.308594 21.527344 80.46875 20.90625 C 80.613281 20.523438 80.855469 20.226562 81.191406 20.019531 Z M 81.191406 20.019531 "/>
</g>
<mask id="mask3">
  <g filter="url(#alpha)">
<rect x="0" y="0" width="227" height="64" style="fill:rgb(0%,0%,0%);fill-opacity:0.980392;stroke:none;"/>
  </g>
</mask>
<clipPath id="clip4">
  <rect x="0" y="0" width="227" height="64"/>
</clipPath>
<g id="surface14" clip-path="url(#clip4)">
<path style=" stroke:none;fill-rule:evenodd;fill:rgb(0%,47.45098%,70.196078%);fill-opacity:1;" d="M 130.402344 8.707031 C 135.699219 8.515625 137.789062 10.992188 136.664062 16.136719 C 136.320312 16.890625 135.785156 17.464844 135.058594 17.859375 C 136.136719 18.234375 136.894531 18.957031 137.332031 20.019531 C 138.144531 22.46875 137.648438 24.597656 135.835938 26.398438 C 134.753906 27.078125 133.570312 27.445312 132.289062 27.507812 C 130.386719 27.71875 128.578125 27.425781 126.855469 26.621094 C 125.03125 25.246094 124.308594 23.414062 124.695312 21.128906 C 124.898438 19.558594 125.730469 18.46875 127.1875 17.859375 C 125.808594 16.921875 125.144531 15.609375 125.195312 13.921875 C 125.34375 10.589844 127.082031 8.851562 130.402344 8.707031 Z M 130.957031 12.476562 C 131.289062 12.449219 131.566406 12.5625 131.789062 12.8125 C 132.261719 13.753906 132.296875 14.714844 131.898438 15.695312 C 131.460938 16.242188 130.980469 16.28125 130.457031 15.804688 C 130.136719 14.933594 130.097656 14.046875 130.347656 13.144531 C 130.5 12.863281 130.703125 12.640625 130.957031 12.476562 Z M 130.847656 20.019531 C 131.597656 19.941406 132.058594 20.273438 132.230469 21.019531 C 132.492188 21.898438 132.417969 22.75 132.011719 23.570312 C 130.996094 24.203125 130.332031 23.941406 130.015625 22.792969 C 129.925781 22.15625 129.964844 21.527344 130.125 20.90625 C 130.269531 20.523438 130.511719 20.226562 130.847656 20.019531 Z M 130.847656 20.019531 "/>
</g>
<mask id="mask4">
  <g filter="url(#alpha)">
<rect x="0" y="0" width="227" height="64" style="fill:rgb(0%,0%,0%);fill-opacity:0.976471;stroke:none;"/>
  </g>
</mask>
<clipPath id="clip5">
  <rect x="0" y="0" width="227" height="64"/>
</clipPath>
<g id="surface17" clip-path="url(#clip5)">
<path style=" stroke:none;fill-rule:evenodd;fill:rgb(0%,47.45098%,70.196078%);fill-opacity:1;" d="M 144.148438 8.707031 C 148.355469 8.484375 150.574219 10.480469 150.796875 14.695312 C 149.171875 14.910156 147.542969 15.128906 145.921875 15.363281 C 146.027344 14.472656 145.769531 13.714844 145.144531 13.089844 C 144.363281 13.054688 143.902344 13.441406 143.757812 14.253906 C 143.554688 15.171875 143.445312 16.097656 143.425781 17.027344 C 143.890625 16.617188 144.425781 16.339844 145.035156 16.195312 C 149.015625 15.832031 150.933594 17.664062 150.796875 21.683594 C 150.941406 23.636719 150.273438 25.246094 148.800781 26.507812 C 146.71875 27.585938 144.539062 27.808594 142.261719 27.175781 C 140.621094 26.453125 139.566406 25.214844 139.105469 23.460938 C 138.480469 20.714844 138.332031 17.941406 138.660156 15.140625 C 138.777344 13.035156 139.574219 11.242188 141.042969 9.761719 C 142.003906 9.152344 143.039062 8.800781 144.148438 8.707031 Z M 144.148438 19.464844 C 145.125 19.316406 145.695312 19.722656 145.867188 20.6875 C 145.941406 21.390625 145.941406 22.089844 145.867188 22.792969 C 145.722656 23.695312 145.226562 24.027344 144.367188 23.792969 C 144.027344 23.414062 143.824219 22.972656 143.757812 22.460938 C 143.574219 21.65625 143.5 20.84375 143.539062 20.019531 C 143.730469 19.808594 143.933594 19.625 144.148438 19.464844 Z M 144.148438 19.464844 "/>
</g>
<mask id="mask5">
  <g filter="url(#alpha)">
<rect x="0" y="0" width="227" height="64" style="fill:rgb(0%,0%,0%);fill-opacity:0.980392;stroke:none;"/>
  </g>
</mask>
<clipPath id="clip6">
  <rect x="0" y="0" width="227" height="64"/>
</clipPath>
<g id="surface20" clip-path="url(#clip6)">
<path style=" stroke:none;fill-rule:evenodd;fill:rgb(0%,47.45098%,70.196078%);fill-opacity:1;" d="M 157.449219 8.707031 C 162.746094 8.515625 164.832031 10.992188 163.710938 16.136719 C 163.367188 16.890625 162.828125 17.464844 162.101562 17.859375 C 163.183594 18.234375 163.941406 18.957031 164.375 20.019531 C 165.191406 22.46875 164.691406 24.597656 162.878906 26.398438 C 161.796875 27.078125 160.613281 27.445312 159.332031 27.507812 C 157.433594 27.71875 155.625 27.425781 153.902344 26.621094 C 152.074219 25.246094 151.355469 23.414062 151.738281 21.128906 C 151.941406 19.558594 152.773438 18.46875 154.234375 17.859375 C 152.851562 16.921875 152.1875 15.609375 152.238281 13.921875 C 152.390625 10.589844 154.128906 8.851562 157.449219 8.707031 Z M 158.003906 12.476562 C 158.335938 12.449219 158.613281 12.5625 158.832031 12.8125 C 159.304688 13.753906 159.34375 14.714844 158.945312 15.695312 C 158.503906 16.242188 158.027344 16.28125 157.503906 15.804688 C 157.179688 14.933594 157.144531 14.046875 157.390625 13.144531 C 157.542969 12.863281 157.746094 12.640625 158.003906 12.476562 Z M 157.890625 20.019531 C 158.644531 19.941406 159.105469 20.273438 159.277344 21.019531 C 159.535156 21.898438 159.460938 22.75 159.054688 23.570312 C 158.042969 24.203125 157.378906 23.941406 157.058594 22.792969 C 156.972656 22.15625 157.007812 21.527344 157.171875 20.90625 C 157.316406 20.523438 157.554688 20.226562 157.890625 20.019531 Z M 157.890625 20.019531 "/>
</g>
<mask id="mask6">
  <g filter="url(#alpha)">
<rect x="0" y="0" width="227" height="64" style="fill:rgb(0%,0%,0%);fill-opacity:0.976471;stroke:none;"/>
  </g>
</mask>
<clipPath id="clip7">
  <rect x="0" y="0" width="227" height="64"/>
</clipPath>
<g id="surface23" clip-path="url(#clip7)">
<path style=" stroke:none;fill-rule:evenodd;fill:rgb(0%,47.45098%,70.196078%);fill-opacity:1;" d="M 179.0625 8.707031 C 180.691406 8.589844 182.207031 8.941406 183.605469 9.761719 C 185.5625 11.617188 186.0625 13.816406 185.101562 16.359375 C 184.773438 17.113281 184.238281 17.667969 183.496094 18.023438 C 185.246094 18.859375 186.09375 20.265625 186.042969 22.238281 C 185.847656 25.117188 184.335938 26.835938 181.5 27.398438 C 177.046875 28.183594 174.421875 26.375 173.628906 21.960938 C 173.660156 21.816406 173.734375 21.703125 173.851562 21.628906 C 175.441406 21.417969 177.027344 21.214844 178.617188 21.019531 C 178.535156 22.09375 178.960938 22.871094 179.894531 23.347656 C 180.511719 23.1875 180.84375 22.78125 180.890625 22.128906 C 181.019531 21.300781 180.746094 20.652344 180.058594 20.1875 C 179.285156 20.132812 178.507812 20.113281 177.730469 20.132812 C 177.730469 18.875 177.730469 17.617188 177.730469 16.359375 C 178.324219 16.378906 178.914062 16.359375 179.503906 16.304688 C 180.417969 16.113281 180.859375 15.539062 180.835938 14.585938 C 180.785156 14.289062 180.730469 13.992188 180.667969 13.699219 C 180.445312 13.097656 180.019531 12.894531 179.394531 13.089844 C 178.839844 13.734375 178.582031 14.492188 178.617188 15.363281 C 177.0625 15.15625 175.511719 14.917969 173.964844 14.640625 C 173.875 11.160156 175.574219 9.183594 179.0625 8.707031 Z M 179.0625 8.707031 "/>
</g>
<mask id="mask7">
  <g filter="url(#alpha)">
<rect x="0" y="0" width="227" height="64" style="fill:rgb(0%,0%,0%);fill-opacity:0.976471;stroke:none;"/>
  </g>
</mask>
<clipPath id="clip8">
  <rect x="0" y="0" width="227" height="64"/>
</clipPath>
<g id="surface26" clip-path="url(#clip8)">
<path style=" stroke:none;fill-rule:evenodd;fill:rgb(0%,47.45098%,70.196078%);fill-opacity:1;" d="M 192.03125 8.707031 C 196.105469 8.550781 198.339844 10.511719 198.734375 14.585938 C 198.957031 16.839844 198.957031 19.097656 198.734375 21.351562 C 198.1875 26.371094 195.433594 28.351562 190.476562 27.285156 C 188.625 26.710938 187.460938 25.46875 186.988281 23.570312 C 186.796875 22.914062 186.667969 22.25 186.597656 21.574219 C 188.226562 21.363281 189.851562 21.140625 191.476562 20.90625 C 191.410156 21.785156 191.667969 22.546875 192.25 23.183594 C 192.5625 23.265625 192.859375 23.230469 193.136719 23.070312 C 193.425781 22.648438 193.628906 22.1875 193.75 21.683594 C 193.902344 20.875 193.976562 20.0625 193.96875 19.246094 C 193.21875 19.933594 192.332031 20.226562 191.308594 20.132812 C 188.546875 20.140625 186.996094 18.773438 186.65625 16.027344 C 186.382812 14.273438 186.640625 12.609375 187.429688 11.035156 C 188.601562 9.535156 190.132812 8.757812 192.03125 8.707031 Z M 192.25 12.367188 C 192.511719 12.347656 192.773438 12.367188 193.027344 12.421875 C 193.566406 13.160156 193.84375 13.992188 193.859375 14.917969 C 194.234375 16.464844 193.664062 17.039062 192.140625 16.636719 C 191.804688 16.320312 191.601562 15.933594 191.53125 15.472656 C 191.417969 14.605469 191.492188 13.753906 191.753906 12.921875 C 191.871094 12.683594 192.035156 12.496094 192.25 12.367188 Z M 192.25 12.367188 "/>
</g>
<mask id="mask8">
  <g filter="url(#alpha)">
<rect x="0" y="0" width="227" height="64" style="fill:rgb(0%,0%,0%);fill-opacity:0.980392;stroke:none;"/>
  </g>
</mask>
<clipPath id="clip9">
  <rect x="0" y="0" width="227" height="64"/>
</clipPath>
<g id="surface29" clip-path="url(#clip9)">
<path style=" stroke:none;fill-rule:evenodd;fill:rgb(0%,47.45098%,70.196078%);fill-opacity:1;" d="M 205.332031 8.707031 C 206.972656 8.609375 208.523438 8.921875 209.984375 9.648438 C 211.394531 10.734375 212.097656 12.175781 212.09375 13.976562 C 212.015625 15.816406 211.515625 17.535156 210.59375 19.132812 C 209.652344 20.667969 208.488281 22.015625 207.105469 23.183594 C 208.765625 23.238281 210.429688 23.257812 212.09375 23.238281 C 212.09375 24.570312 212.09375 25.898438 212.09375 27.230469 C 208.101562 27.230469 204.113281 27.230469 200.121094 27.230469 C 200.085938 25.859375 200.121094 24.492188 200.230469 23.125 C 202.804688 21.714844 204.855469 19.757812 206.382812 17.246094 C 206.769531 16.382812 207.011719 15.476562 207.105469 14.53125 C 207.175781 13.726562 206.839844 13.191406 206.105469 12.921875 C 205.519531 13.167969 205.167969 13.613281 205.054688 14.253906 C 205 14.65625 204.980469 15.066406 205 15.472656 C 203.300781 15.242188 201.601562 15.019531 199.898438 14.808594 C 199.90625 11.121094 201.714844 9.085938 205.332031 8.707031 Z M 205.332031 8.707031 "/>
</g>
<mask id="mask9">
  <g filter="url(#alpha)">
<rect x="0" y="0" width="227" height="64" style="fill:rgb(0%,0%,0%);fill-opacity:0.976471;stroke:none;"/>
  </g>
</mask>
<clipPath id="clip10">
  <rect x="0" y="0" width="227" height="64"/>
</clipPath>
<g id="surface32" clip-path="url(#clip10)">
<path style=" stroke:none;fill-rule:evenodd;fill:rgb(0%,47.45098%,70.196078%);fill-opacity:1;" d="M 218.851562 8.707031 C 223.0625 8.484375 225.28125 10.480469 225.503906 14.695312 C 223.875 14.910156 222.25 15.128906 220.625 15.363281 C 220.734375 14.472656 220.472656 13.714844 219.851562 13.089844 C 219.070312 13.054688 218.609375 13.441406 218.464844 14.253906 C 218.261719 15.171875 218.152344 16.097656 218.132812 17.027344 C 218.597656 16.617188 219.132812 16.339844 219.738281 16.195312 C 223.71875 15.832031 225.640625 17.664062 225.503906 21.683594 C 225.644531 23.636719 224.980469 25.246094 223.507812 26.507812 C 221.421875 27.585938 219.242188 27.808594 216.96875 27.175781 C 215.328125 26.453125 214.273438 25.214844 213.808594 23.460938 C 213.1875 20.714844 213.039062 17.941406 213.367188 15.140625 C 213.484375 13.035156 214.28125 11.242188 215.75 9.761719 C 216.710938 9.152344 217.742188 8.800781 218.851562 8.707031 Z M 218.851562 19.464844 C 219.832031 19.316406 220.402344 19.722656 220.570312 20.6875 C 220.644531 21.390625 220.644531 22.089844 220.570312 22.792969 C 220.429688 23.695312 219.933594 24.027344 219.074219 23.792969 C 218.734375 23.414062 218.53125 22.972656 218.464844 22.460938 C 218.28125 21.65625 218.207031 20.84375 218.242188 20.019531 C 218.433594 19.808594 218.636719 19.625 218.851562 19.464844 Z M 218.851562 19.464844 "/>
</g>
<mask id="mask10">
  <g filter="url(#alpha)">
<rect x="0" y="0" width="227" height="64" style="fill:rgb(0%,0%,0%);fill-opacity:0.988235;stroke:none;"/>
  </g>
</mask>
<clipPath id="clip11">
  <rect x="0" y="0" width="227" height="64"/>
</clipPath>
<g id="surface35" clip-path="url(#clip11)">
<path style=" stroke:none;fill-rule:evenodd;fill:rgb(0%,47.45098%,70.196078%);fill-opacity:1;" d="M 59.132812 8.929688 C 60.796875 8.929688 62.457031 8.929688 64.121094 8.929688 C 64.121094 15.03125 64.121094 21.128906 64.121094 27.230469 C 62.457031 27.230469 60.796875 27.230469 59.132812 27.230469 C 59.171875 22.570312 59.132812 17.914062 59.023438 13.253906 C 58.070312 13.675781 57.074219 13.894531 56.03125 13.921875 C 56.03125 12.515625 56.03125 11.109375 56.03125 9.707031 C 57.144531 9.722656 58.179688 9.464844 59.132812 8.929688 Z M 59.132812 8.929688 "/>
</g>
<mask id="mask11">
  <g filter="url(#alpha)">
<rect x="0" y="0" width="227" height="64" style="fill:rgb(0%,0%,0%);fill-opacity:0.984314;stroke:none;"/>
  </g>
</mask>
<clipPath id="clip12">
  <rect x="0" y="0" width="227" height="64"/>
</clipPath>
<g id="surface38" clip-path="url(#clip12)">
<path style=" stroke:none;fill-rule:evenodd;fill:rgb(0%,47.45098%,70.196078%);fill-opacity:1;" d="M 98.59375 8.929688 C 98.960938 8.929688 99.332031 8.929688 99.699219 8.929688 C 99.699219 12.441406 99.699219 15.953125 99.699219 19.464844 C 100.292969 19.464844 100.882812 19.464844 101.472656 19.464844 C 101.472656 20.835938 101.472656 22.203125 101.472656 23.570312 C 100.882812 23.570312 100.292969 23.570312 99.699219 23.570312 C 99.699219 24.789062 99.699219 26.011719 99.699219 27.230469 C 98.074219 27.230469 96.449219 27.230469 94.824219 27.230469 C 94.824219 26.011719 94.824219 24.789062 94.824219 23.570312 C 92.792969 23.570312 90.757812 23.570312 88.726562 23.570312 C 88.707031 22.164062 88.726562 20.757812 88.78125 19.355469 C 90.777344 15.953125 92.773438 12.550781 94.769531 9.152344 C 96.054688 9.078125 97.328125 9.003906 98.59375 8.929688 Z M 94.710938 15.917969 C 94.824219 17.078125 94.859375 18.261719 94.824219 19.464844 C 94.15625 19.503906 93.488281 19.464844 92.828125 19.355469 C 93.488281 18.222656 94.117188 17.074219 94.710938 15.917969 Z M 94.710938 15.917969 "/>
</g>
<mask id="mask12">
  <g filter="url(#alpha)">
<rect x="0" y="0" width="227" height="64" style="fill:rgb(0%,0%,0%);fill-opacity:0.984314;stroke:none;"/>
  </g>
</mask>
<clipPath id="clip13">
  <rect x="0" y="0" width="227" height="64"/>
</clipPath>
<g id="surface41" clip-path="url(#clip13)">
<path style=" stroke:none;fill-rule:evenodd;fill:rgb(0%,47.45098%,70.196078%);fill-opacity:1;" d="M 112.226562 8.929688 C 112.59375 8.929688 112.964844 8.929688 113.332031 8.929688 C 113.332031 12.441406 113.332031 15.953125 113.332031 19.464844 C 113.925781 19.464844 114.515625 19.464844 115.105469 19.464844 C 115.105469 20.835938 115.105469 22.203125 115.105469 23.570312 C 114.515625 23.570312 113.925781 23.570312 113.332031 23.570312 C 113.332031 24.789062 113.332031 26.011719 113.332031 27.230469 C 111.707031 27.230469 110.082031 27.230469 108.457031 27.230469 C 108.457031 26.011719 108.457031 24.789062 108.457031 23.570312 C 106.425781 23.570312 104.394531 23.570312 102.359375 23.570312 C 102.34375 22.164062 102.359375 20.757812 102.414062 19.355469 C 104.410156 15.953125 106.40625 12.550781 108.402344 9.152344 C 109.6875 9.078125 110.960938 9.003906 112.226562 8.929688 Z M 108.347656 15.917969 C 108.457031 17.078125 108.492188 18.261719 108.457031 19.464844 C 107.789062 19.503906 107.121094 19.464844 106.460938 19.355469 C 107.121094 18.222656 107.75 17.074219 108.347656 15.917969 Z M 108.347656 15.917969 "/>
</g>
<mask id="mask13">
  <g filter="url(#alpha)">
<rect x="0" y="0" width="227" height="64" style="fill:rgb(0%,0%,0%);fill-opacity:0.988235;stroke:none;"/>
  </g>
</mask>
<clipPath id="clip14">
  <rect x="0" y="0" width="227" height="64"/>
</clipPath>
<g id="surface44" clip-path="url(#clip14)">
<path style=" stroke:none;fill-rule:evenodd;fill:rgb(0%,47.45098%,70.196078%);fill-opacity:1;" d="M 51.261719 13.699219 C 52.296875 13.699219 53.332031 13.699219 54.367188 13.699219 C 54.367188 14.917969 54.367188 16.136719 54.367188 17.359375 C 55.476562 17.359375 56.582031 17.359375 57.691406 17.359375 C 57.691406 18.394531 57.691406 19.429688 57.691406 20.464844 C 56.582031 20.464844 55.476562 20.464844 54.367188 20.464844 C 54.367188 21.683594 54.367188 22.90625 54.367188 24.125 C 53.332031 24.125 52.296875 24.125 51.261719 24.125 C 51.261719 22.90625 51.261719 21.683594 51.261719 20.464844 C 50.15625 20.464844 49.046875 20.464844 47.9375 20.464844 C 47.9375 19.429688 47.9375 18.394531 47.9375 17.359375 C 49.046875 17.359375 50.15625 17.359375 51.261719 17.359375 C 51.261719 16.136719 51.261719 14.917969 51.261719 13.699219 Z M 51.261719 13.699219 "/>
</g>
<mask id="mask14">
  <g filter="url(#alpha)">
<rect x="0" y="0" width="227" height="64" style="fill:rgb(0%,0%,0%);fill-opacity:0.960784;stroke:none;"/>
  </g>
</mask>
<clipPath id="clip15">
  <rect x="0" y="0" width="227" height="64"/>
</clipPath>
<g id="surface47" clip-path="url(#clip15)">
<path style=" stroke:none;fill-rule:evenodd;fill:rgb(0%,47.45098%,70.196078%);fill-opacity:1;" d="M 66.558594 18.023438 C 68.925781 18.023438 71.289062 18.023438 73.652344 18.023438 C 73.652344 19.464844 73.652344 20.90625 73.652344 22.351562 C 71.289062 22.351562 68.925781 22.351562 66.558594 22.351562 C 66.558594 20.90625 66.558594 19.464844 66.558594 18.023438 Z M 66.558594 18.023438 "/>
</g>
<mask id="mask15">
  <g filter="url(#alpha)">
<rect x="0" y="0" width="227" height="64" style="fill:rgb(0%,0%,0%);fill-opacity:0.960784;stroke:none;"/>
  </g>
</mask>
<clipPath id="clip16">
  <rect x="0" y="0" width="227" height="64"/>
</clipPath>
<g id="surface50" clip-path="url(#clip16)">
<path style=" stroke:none;fill-rule:evenodd;fill:rgb(0%,47.45098%,70.196078%);fill-opacity:1;" d="M 116.328125 18.023438 C 118.691406 18.023438 121.054688 18.023438 123.421875 18.023438 C 123.421875 19.464844 123.421875 20.90625 123.421875 22.351562 C 121.054688 22.351562 118.691406 22.351562 116.328125 22.351562 C 116.328125 20.90625 116.328125 19.464844 116.328125 18.023438 Z M 116.328125 18.023438 "/>
</g>
<mask id="mask16">
  <g filter="url(#alpha)">
<rect x="0" y="0" width="227" height="64" style="fill:rgb(0%,0%,0%);fill-opacity:0.960784;stroke:none;"/>
  </g>
</mask>
<clipPath id="clip17">
  <rect x="0" y="0" width="227" height="64"/>
</clipPath>
<g id="surface53" clip-path="url(#clip17)">
<path style=" stroke:none;fill-rule:evenodd;fill:rgb(0%,47.45098%,70.196078%);fill-opacity:1;" d="M 165.871094 18.023438 C 168.234375 18.023438 170.601562 18.023438 172.964844 18.023438 C 172.964844 19.464844 172.964844 20.90625 172.964844 22.351562 C 170.601562 22.351562 168.234375 22.351562 165.871094 22.351562 C 165.871094 20.90625 165.871094 19.464844 165.871094 18.023438 Z M 165.871094 18.023438 "/>
</g>
<mask id="mask17">
  <g filter="url(#alpha)">
<rect x="0" y="0" width="227" height="64" style="fill:rgb(0%,0%,0%);fill-opacity:0.996078;stroke:none;"/>
  </g>
</mask>
<clipPath id="clip18">
  <rect x="0" y="0" width="227" height="64"/>
</clipPath>
<g id="surface56" clip-path="url(#clip18)">
<path style=" stroke:none;fill-rule:evenodd;fill:rgb(54.901961%,70.980392%,81.176471%);fill-opacity:1;" d="M 5.820312 29.003906 C 6.035156 29.148438 6.21875 29.332031 6.375 29.558594 C 6.082031 29.488281 5.894531 29.304688 5.820312 29.003906 Z M 5.820312 29.003906 "/>
</g>
<mask id="mask18">
  <g filter="url(#alpha)">
<rect x="0" y="0" width="227" height="64" style="fill:rgb(0%,0%,0%);fill-opacity:0.721569;stroke:none;"/>
  </g>
</mask>
<clipPath id="clip19">
  <rect x="0" y="0" width="227" height="64"/>
</clipPath>
<g id="surface59" clip-path="url(#clip19)">
<path style=" stroke:none;fill-rule:evenodd;fill:rgb(63.137255%,76.470588%,83.921569%);fill-opacity:1;" d="M 22.886719 34.328125 C 23.121094 34.449219 23.265625 34.632812 23.332031 34.882812 C 23.101562 34.761719 22.953125 34.578125 22.886719 34.328125 Z M 22.886719 34.328125 "/>
</g>
<mask id="mask19">
  <g filter="url(#alpha)">
<rect x="0" y="0" width="227" height="64" style="fill:rgb(0%,0%,0%);fill-opacity:0.984314;stroke:none;"/>
  </g>
</mask>
<clipPath id="clip20">
  <rect x="0" y="0" width="227" height="64"/>
</clipPath>
<g id="surface62" clip-path="url(#clip20)">
<path style=" stroke:none;fill-rule:evenodd;fill:rgb(0.784314%,47.45098%,69.411765%);fill-opacity:1;" d="M 17.679688 37.65625 C 19.246094 37.65625 20.003906 38.429688 19.953125 39.984375 C 19.355469 41.464844 18.339844 41.855469 16.902344 41.152344 C 15.867188 40.117188 15.867188 39.082031 16.902344 38.046875 C 17.171875 37.910156 17.429688 37.78125 17.679688 37.65625 Z M 17.679688 37.65625 "/>
</g>
<mask id="mask20">
  <g filter="url(#alpha)">
<rect x="0" y="0" width="227" height="64" style="fill:rgb(0%,0%,0%);fill-opacity:0.0980392;stroke:none;"/>
  </g>
</mask>
<clipPath id="clip21">
  <rect x="0" y="0" width="227" height="64"/>
</clipPath>
<g id="surface65" clip-path="url(#clip21)">
<path style=" stroke:none;fill-rule:evenodd;fill:rgb(3.529412%,10.588235%,14.509804%);fill-opacity:1;" d="M 102.472656 38.101562 C 102.472656 38.136719 102.472656 38.175781 102.472656 38.210938 C 102.472656 42.648438 102.472656 47.085938 102.472656 51.523438 C 103.578125 51.523438 104.6875 51.523438 105.796875 51.523438 C 105.777344 50.375 105.796875 49.230469 105.851562 48.082031 C 105.984375 47.945312 106.113281 47.945312 106.238281 48.082031 C 106.226562 48.152344 106.1875 48.1875 106.128906 48.195312 C 106.050781 49.285156 105.976562 50.449219 105.90625 51.6875 C 104.734375 51.777344 103.570312 51.761719 102.414062 51.632812 C 102.324219 47.101562 102.34375 42.59375 102.472656 38.101562 Z M 102.472656 38.101562 "/>
</g>
<mask id="mask21">
  <g filter="url(#alpha)">
<rect x="0" y="0" width="227" height="64" style="fill:rgb(0%,0%,0%);fill-opacity:0.117647;stroke:none;"/>
  </g>
</mask>
<clipPath id="clip22">
  <rect x="0" y="0" width="227" height="64"/>
</clipPath>
<g id="surface68" clip-path="url(#clip22)">
<path style=" stroke:none;fill-rule:evenodd;fill:rgb(0%,20%,29.411765%);fill-opacity:1;" d="M 102.472656 38.210938 C 102.472656 38.175781 102.472656 38.136719 102.472656 38.101562 C 103.652344 38.101562 104.835938 38.101562 106.019531 38.101562 C 106.019531 40.503906 106.019531 42.90625 106.019531 45.308594 C 105.90625 42.964844 105.871094 40.597656 105.90625 38.210938 C 104.761719 38.210938 103.617188 38.210938 102.472656 38.210938 Z M 102.472656 38.210938 "/>
</g>
<mask id="mask22">
  <g filter="url(#alpha)">
<rect x="0" y="0" width="227" height="64" style="fill:rgb(0%,0%,0%);fill-opacity:0.470588;stroke:none;"/>
  </g>
</mask>
<clipPath id="clip23">
  <rect x="0" y="0" width="227" height="64"/>
</clipPath>
<g id="surface71" clip-path="url(#clip23)">
<path style=" stroke:none;fill-rule:evenodd;fill:rgb(0%,31.372549%,46.27451%);fill-opacity:1;" d="M 144.257812 38.210938 C 143.121094 38.175781 141.996094 38.214844 140.878906 38.324219 C 140.859375 42.777344 140.804688 47.214844 140.710938 51.632812 C 140.710938 47.121094 140.710938 42.609375 140.710938 38.101562 C 141.914062 38.0625 143.09375 38.101562 144.257812 38.210938 Z M 144.257812 38.210938 "/>
</g>
<mask id="mask23">
  <g filter="url(#alpha)">
<rect x="0" y="0" width="227" height="64" style="fill:rgb(0%,0%,0%);fill-opacity:0.835294;stroke:none;"/>
  </g>
</mask>
<clipPath id="clip24">
  <rect x="0" y="0" width="227" height="64"/>
</clipPath>
<g id="surface74" clip-path="url(#clip24)">
<path style=" stroke:none;fill-rule:evenodd;fill:rgb(9.019608%,20%,26.27451%);fill-opacity:1;" d="M 144.257812 38.324219 C 144.257812 39.839844 144.257812 41.355469 144.257812 42.871094 C 144.117188 41.523438 144.117188 40.007812 144.257812 38.324219 Z M 144.257812 38.324219 "/>
</g>
<mask id="mask24">
  <g filter="url(#alpha)">
<rect x="0" y="0" width="227" height="64" style="fill:rgb(0%,0%,0%);fill-opacity:0.286275;stroke:none;"/>
  </g>
</mask>
<clipPath id="clip25">
  <rect x="0" y="0" width="227" height="64"/>
</clipPath>
<g id="surface77" clip-path="url(#clip25)">
<path style=" stroke:none;fill-rule:evenodd;fill:rgb(0.392157%,17.647059%,25.490196%);fill-opacity:1;" d="M 120.425781 38.988281 C 121.5 38.988281 122.570312 38.988281 123.640625 38.988281 C 123.640625 39.097656 123.640625 39.210938 123.640625 39.320312 C 123.554688 39.289062 123.480469 39.234375 123.421875 39.152344 C 122.402344 39.136719 121.40625 39.078125 120.425781 38.988281 Z M 120.425781 38.988281 "/>
</g>
<mask id="mask25">
  <g filter="url(#alpha)">
<rect x="0" y="0" width="227" height="64" style="fill:rgb(0%,0%,0%);fill-opacity:0.282353;stroke:none;"/>
  </g>
</mask>
<clipPath id="clip26">
  <rect x="0" y="0" width="227" height="64"/>
</clipPath>
<g id="surface80" clip-path="url(#clip26)">
<path style=" stroke:none;fill-rule:evenodd;fill:rgb(0%,18.431373%,27.058824%);fill-opacity:1;" d="M 129.074219 39.652344 C 128.96875 39.496094 128.929688 39.3125 128.960938 39.097656 C 127.851562 39.082031 126.746094 39.097656 125.636719 39.152344 C 125.578125 39.234375 125.503906 39.289062 125.414062 39.320312 C 125.414062 39.210938 125.414062 39.097656 125.414062 38.988281 C 126.632812 38.988281 127.855469 38.988281 129.074219 38.988281 C 129.074219 39.210938 129.074219 39.429688 129.074219 39.652344 Z M 129.074219 39.652344 "/>
</g>
<mask id="mask26">
  <g filter="url(#alpha)">
<rect x="0" y="0" width="227" height="64" style="fill:rgb(0%,0%,0%);fill-opacity:0.286275;stroke:none;"/>
  </g>
</mask>
<clipPath id="clip27">
  <rect x="0" y="0" width="227" height="64"/>
</clipPath>
<g id="surface83" clip-path="url(#clip27)">
<path style=" stroke:none;fill-rule:evenodd;fill:rgb(1.176471%,17.254902%,25.098039%);fill-opacity:1;" d="M 161.105469 39.210938 C 159.375 39.082031 157.636719 39.066406 155.894531 39.152344 C 155.832031 39.296875 155.757812 39.429688 155.675781 39.542969 C 155.675781 39.359375 155.675781 39.171875 155.675781 38.988281 C 157.527344 38.914062 159.335938 38.988281 161.105469 39.210938 Z M 161.105469 39.210938 "/>
</g>
<mask id="mask27">
  <g filter="url(#alpha)">
<rect x="0" y="0" width="227" height="64" style="fill:rgb(0%,0%,0%);fill-opacity:0.156863;stroke:none;"/>
  </g>
</mask>
<clipPath id="clip28">
  <rect x="0" y="0" width="227" height="64"/>
</clipPath>
<g id="surface86" clip-path="url(#clip28)">
<path style=" stroke:none;fill-rule:evenodd;fill:rgb(3.921569%,13.72549%,19.215686%);fill-opacity:1;" d="M 184.605469 42.09375 C 184.605469 41.09375 184.605469 40.097656 184.605469 39.097656 C 182.121094 39.0625 179.71875 39.097656 177.398438 39.210938 C 177.398438 43.3125 177.398438 47.417969 177.398438 51.523438 C 179.78125 51.632812 182.183594 51.667969 184.605469 51.632812 C 182.148438 51.742188 179.671875 51.78125 177.175781 51.742188 C 177.175781 47.492188 177.175781 43.238281 177.175781 38.988281 C 179.691406 38.988281 182.203125 38.988281 184.714844 38.988281 C 184.75 40.042969 184.714844 41.078125 184.605469 42.09375 Z M 184.605469 42.09375 "/>
</g>
<mask id="mask28">
  <g filter="url(#alpha)">
<rect x="0" y="0" width="227" height="64" style="fill:rgb(0%,0%,0%);fill-opacity:0.298039;stroke:none;"/>
  </g>
</mask>
<clipPath id="clip29">
  <rect x="0" y="0" width="227" height="64"/>
</clipPath>
<g id="surface89" clip-path="url(#clip29)">
<path style=" stroke:none;fill-rule:evenodd;fill:rgb(0%,27.45098%,40.392157%);fill-opacity:1;" d="M 223.730469 39.542969 C 223.949219 40.234375 224.023438 40.976562 223.953125 41.761719 C 223.875 41.03125 223.800781 40.292969 223.730469 39.542969 Z M 223.730469 39.542969 "/>
</g>
<mask id="mask29">
  <g filter="url(#alpha)">
<rect x="0" y="0" width="227" height="64" style="fill:rgb(0%,0%,0%);fill-opacity:0.937255;stroke:none;"/>
  </g>
</mask>
<clipPath id="clip30">
  <rect x="0" y="0" width="227" height="64"/>
</clipPath>
<g id="surface92" clip-path="url(#clip30)">
<path style=" stroke:none;fill-rule:evenodd;fill:rgb(37.254902%,58.039216%,31.764706%);fill-opacity:1;" d="M 52.925781 39.542969 C 52.441406 39.710938 51.980469 39.933594 51.539062 40.207031 C 51.464844 40.125 51.375 40.085938 51.261719 40.097656 C 51.773438 39.804688 52.324219 39.621094 52.925781 39.542969 Z M 52.925781 39.542969 "/>
</g>
<mask id="mask30">
  <g filter="url(#alpha)">
<rect x="0" y="0" width="227" height="64" style="fill:rgb(0%,0%,0%);fill-opacity:0.992157;stroke:none;"/>
  </g>
</mask>
<clipPath id="clip31">
  <rect x="0" y="0" width="227" height="64"/>
</clipPath>
<g id="surface95" clip-path="url(#clip31)">
<path style=" stroke:none;fill-rule:evenodd;fill:rgb(12.941176%,11.372549%,12.156863%);fill-opacity:1;" d="M 129.628906 41.761719 C 130.847656 41.761719 132.066406 41.761719 133.285156 41.761719 C 133.304688 45.050781 133.285156 48.34375 133.230469 51.632812 C 132.046875 51.78125 130.867188 51.78125 129.683594 51.632812 C 129.628906 48.34375 129.609375 45.050781 129.628906 41.761719 Z M 129.628906 41.761719 "/>
</g>
<mask id="mask31">
  <g filter="url(#alpha)">
<rect x="0" y="0" width="227" height="64" style="fill:rgb(0%,0%,0%);fill-opacity:0.113725;stroke:none;"/>
  </g>
</mask>
<clipPath id="clip32">
  <rect x="0" y="0" width="227" height="64"/>
</clipPath>
<g id="surface98" clip-path="url(#clip32)">
<path style=" stroke:none;fill-rule:evenodd;fill:rgb(0.392157%,10.588235%,15.686275%);fill-opacity:1;" d="M 78.085938 42.539062 C 78.117188 42.742188 78.042969 42.890625 77.863281 42.980469 C 77.753906 42.617188 77.71875 42.25 77.753906 41.871094 C 76.609375 41.871094 75.464844 41.871094 74.316406 41.871094 C 74.316406 46.308594 74.316406 50.746094 74.316406 55.183594 C 74.28125 55.183594 74.246094 55.183594 74.207031 55.183594 C 74.207031 50.707031 74.207031 46.234375 74.207031 41.761719 C 75.425781 41.761719 76.644531 41.761719 77.863281 41.761719 C 77.847656 42.09375 77.863281 42.429688 77.921875 42.757812 C 77.953125 42.65625 78.007812 42.582031 78.085938 42.539062 Z M 78.085938 42.539062 "/>
</g>
<mask id="mask32">
  <g filter="url(#alpha)">
<rect x="0" y="0" width="227" height="64" style="fill:rgb(0%,0%,0%);fill-opacity:0.788235;stroke:none;"/>
  </g>
</mask>
<clipPath id="clip33">
  <rect x="0" y="0" width="227" height="64"/>
</clipPath>
<g id="surface101" clip-path="url(#clip33)">
<path style=" stroke:none;fill-rule:evenodd;fill:rgb(2.745098%,33.72549%,49.411765%);fill-opacity:1;" d="M 218.851562 41.648438 C 219.042969 42.609375 219.152344 43.609375 219.1875 44.644531 C 219.082031 44.761719 218.972656 44.761719 218.851562 44.644531 C 219 43.644531 219 42.648438 218.851562 41.648438 Z M 218.851562 41.648438 "/>
</g>
<mask id="mask33">
  <g filter="url(#alpha)">
<rect x="0" y="0" width="227" height="64" style="fill:rgb(0%,0%,0%);fill-opacity:0.380392;stroke:none;"/>
  </g>
</mask>
<clipPath id="clip34">
  <rect x="0" y="0" width="227" height="64"/>
</clipPath>
<g id="surface104" clip-path="url(#clip34)">
<path style=" stroke:none;fill-rule:evenodd;fill:rgb(6.666667%,22.745098%,31.372549%);fill-opacity:1;" d="M 184.605469 42.09375 C 183.347656 42.09375 182.089844 42.09375 180.835938 42.09375 C 182.011719 41.875 183.230469 41.800781 184.492188 41.871094 C 184.492188 40.984375 184.492188 40.097656 184.492188 39.210938 C 182.128906 39.210938 179.761719 39.210938 177.398438 39.210938 C 179.71875 39.097656 182.121094 39.0625 184.605469 39.097656 C 184.605469 40.097656 184.605469 41.09375 184.605469 42.09375 Z M 184.605469 42.09375 "/>
</g>
<mask id="mask34">
  <g filter="url(#alpha)">
<rect x="0" y="0" width="227" height="64" style="fill:rgb(0%,0%,0%);fill-opacity:0.466667;stroke:none;"/>
  </g>
</mask>
<clipPath id="clip35">
  <rect x="0" y="0" width="227" height="64"/>
</clipPath>
<g id="surface107" clip-path="url(#clip35)">
<path style=" stroke:none;fill-rule:evenodd;fill:rgb(4.705882%,25.098039%,36.078431%);fill-opacity:1;" d="M 180.835938 43.867188 C 181.945312 43.867188 183.050781 43.867188 184.160156 43.867188 C 184.160156 44.867188 184.160156 45.863281 184.160156 46.863281 C 183.050781 46.863281 181.945312 46.863281 180.835938 46.863281 C 181.824219 46.644531 182.859375 46.570312 183.9375 46.640625 C 183.9375 45.789062 183.9375 44.941406 183.9375 44.089844 C 182.859375 44.160156 181.824219 44.085938 180.835938 43.867188 Z M 180.835938 43.867188 "/>
</g>
<mask id="mask35">
  <g filter="url(#alpha)">
<rect x="0" y="0" width="227" height="64" style="fill:rgb(0%,0%,0%);fill-opacity:0.835294;stroke:none;"/>
  </g>
</mask>
<clipPath id="clip36">
  <rect x="0" y="0" width="227" height="64"/>
</clipPath>
<g id="surface110" clip-path="url(#clip36)">
<path style=" stroke:none;fill-rule:evenodd;fill:rgb(9.019608%,20%,26.27451%);fill-opacity:1;" d="M 144.367188 44.867188 C 144.261719 47.117188 144.226562 49.375 144.257812 51.632812 C 143.148438 51.652344 142.039062 51.632812 140.933594 51.578125 C 142.003906 51.523438 143.074219 51.503906 144.148438 51.523438 C 144.128906 49.339844 144.148438 47.160156 144.203125 44.976562 C 144.246094 44.914062 144.300781 44.878906 144.367188 44.867188 Z M 144.367188 44.867188 "/>
</g>
<mask id="mask36">
  <g filter="url(#alpha)">
<rect x="0" y="0" width="227" height="64" style="fill:rgb(0%,0%,0%);fill-opacity:0.301961;stroke:none;"/>
  </g>
</mask>
<clipPath id="clip37">
  <rect x="0" y="0" width="227" height="64"/>
</clipPath>
<g id="surface113" clip-path="url(#clip37)">
<path style=" stroke:none;fill-rule:evenodd;fill:rgb(3.921569%,15.294118%,21.568627%);fill-opacity:1;" d="M 149.246094 44.199219 C 149.246094 46.714844 149.246094 49.230469 149.246094 51.742188 C 148.0625 51.742188 146.882812 51.742188 145.699219 51.742188 C 145.699219 49.523438 145.699219 47.308594 145.699219 45.089844 C 145.789062 47.175781 145.847656 49.285156 145.867188 51.410156 C 146.910156 51.539062 147.960938 51.558594 149.023438 51.464844 C 149.097656 49.035156 149.171875 46.613281 149.246094 44.199219 Z M 149.246094 44.199219 "/>
</g>
<mask id="mask37">
  <g filter="url(#alpha)">
<rect x="0" y="0" width="227" height="64" style="fill:rgb(0%,0%,0%);fill-opacity:0.196078;stroke:none;"/>
  </g>
</mask>
<clipPath id="clip38">
  <rect x="0" y="0" width="227" height="64"/>
</clipPath>
<g id="surface116" clip-path="url(#clip38)">
<path style=" stroke:none;fill-rule:evenodd;fill:rgb(0.784314%,20.784314%,30.196078%);fill-opacity:1;" d="M 157.890625 45.863281 C 157.890625 46.011719 157.890625 46.160156 157.890625 46.308594 C 158.261719 46.308594 158.628906 46.308594 159 46.308594 C 158.617188 46.417969 158.210938 46.453125 157.78125 46.417969 C 157.75 46.207031 157.785156 46.023438 157.890625 45.863281 Z M 157.890625 45.863281 "/>
</g>
<mask id="mask38">
  <g filter="url(#alpha)">
<rect x="0" y="0" width="227" height="64" style="fill:rgb(0%,0%,0%);fill-opacity:0.988235;stroke:none;"/>
  </g>
</mask>
<clipPath id="clip39">
  <rect x="0" y="0" width="227" height="64"/>
</clipPath>
<g id="surface119" clip-path="url(#clip39)">
<path style=" stroke:none;fill-rule:evenodd;fill:rgb(6.27451%,26.27451%,36.862745%);fill-opacity:1;" d="M 180.835938 48.636719 C 182.128906 48.636719 183.421875 48.636719 184.714844 48.636719 C 184.75 49.65625 184.714844 50.65625 184.605469 51.632812 C 182.183594 51.667969 179.78125 51.632812 177.398438 51.523438 C 179.761719 51.523438 182.128906 51.523438 184.492188 51.523438 C 184.492188 50.597656 184.492188 49.671875 184.492188 48.75 C 183.253906 48.785156 182.035156 48.75 180.835938 48.636719 Z M 180.835938 48.636719 "/>
</g>
<mask id="mask39">
  <g filter="url(#alpha)">
<rect x="0" y="0" width="227" height="64" style="fill:rgb(0%,0%,0%);fill-opacity:0.619608;stroke:none;"/>
  </g>
</mask>
<clipPath id="clip40">
  <rect x="0" y="0" width="227" height="64"/>
</clipPath>
<g id="surface122" clip-path="url(#clip40)">
<path style=" stroke:none;fill-rule:evenodd;fill:rgb(17.254902%,40.784314%,56.862745%);fill-opacity:1;" d="M 225.503906 49.746094 C 225.398438 49.550781 225.359375 49.328125 225.394531 49.082031 C 225.488281 48.976562 225.5625 48.976562 225.613281 49.082031 C 225.519531 49.292969 225.484375 49.515625 225.503906 49.746094 Z M 225.503906 49.746094 "/>
</g>
<mask id="mask40">
  <g filter="url(#alpha)">
<rect x="0" y="0" width="227" height="64" style="fill:rgb(0%,0%,0%);fill-opacity:0.886275;stroke:none;"/>
  </g>
</mask>
<clipPath id="clip41">
  <rect x="0" y="0" width="227" height="64"/>
</clipPath>
<g id="surface125" clip-path="url(#clip41)">
<path style=" stroke:none;fill-rule:evenodd;fill:rgb(6.666667%,17.254902%,23.529412%);fill-opacity:1;" d="M 139.933594 50.96875 C 139.8125 50.429688 139.8125 49.875 139.933594 49.304688 C 139.578125 49.335938 139.246094 49.300781 138.9375 49.191406 C 139.3125 49.195312 139.679688 49.160156 140.046875 49.082031 C 139.988281 49.707031 139.949219 50.335938 139.933594 50.96875 Z M 139.933594 50.96875 "/>
</g>
<mask id="mask41">
  <g filter="url(#alpha)">
<rect x="0" y="0" width="227" height="64" style="fill:rgb(0%,0%,0%);fill-opacity:0.282353;stroke:none;"/>
  </g>
</mask>
<clipPath id="clip42">
  <rect x="0" y="0" width="227" height="64"/>
</clipPath>
<g id="surface128" clip-path="url(#clip42)">
<path style=" stroke:none;fill-rule:evenodd;fill:rgb(21.960784%,33.333333%,40.392157%);fill-opacity:1;" d="M 77.976562 50.746094 C 77.867188 52.242188 77.828125 53.757812 77.863281 55.292969 C 76.625 55.328125 75.40625 55.292969 74.207031 55.183594 C 74.246094 55.183594 74.28125 55.183594 74.316406 55.183594 C 75.464844 55.183594 76.609375 55.183594 77.753906 55.183594 C 77.734375 53.554688 77.753906 51.929688 77.808594 50.300781 C 77.941406 50.417969 77.996094 50.566406 77.976562 50.746094 Z M 77.976562 50.746094 "/>
</g>
<mask id="mask42">
  <g filter="url(#alpha)">
<rect x="0" y="0" width="227" height="64" style="fill:rgb(0%,0%,0%);fill-opacity:0.964706;stroke:none;"/>
  </g>
</mask>
<clipPath id="clip43">
  <rect x="0" y="0" width="227" height="64"/>
</clipPath>
<g id="surface131" clip-path="url(#clip43)">
<path style=" stroke:none;fill-rule:evenodd;fill:rgb(10.588235%,18.039216%,23.137255%);fill-opacity:1;" d="M 216.746094 45.976562 C 216.746094 47.863281 216.746094 49.746094 216.746094 51.632812 C 215.636719 51.652344 214.53125 51.632812 213.421875 51.578125 C 214.484375 51.558594 215.535156 51.5 216.582031 51.410156 C 216.601562 49.578125 216.65625 47.769531 216.746094 45.976562 Z M 216.746094 45.976562 "/>
</g>
<mask id="mask43">
  <g filter="url(#alpha)">
<rect x="0" y="0" width="227" height="64" style="fill:rgb(0%,0%,0%);fill-opacity:0.529412;stroke:none;"/>
  </g>
</mask>
<clipPath id="clip44">
  <rect x="0" y="0" width="227" height="64"/>
</clipPath>
<g id="surface134" clip-path="url(#clip44)">
<path style=" stroke:none;fill-rule:evenodd;fill:rgb(2.745098%,23.921569%,34.901961%);fill-opacity:1;" d="M 9.253906 56.511719 C 9.199219 56.90625 9.273438 57.253906 9.476562 57.566406 C 9.394531 57.640625 9.355469 57.734375 9.367188 57.84375 C 9.199219 57.625 9.125 57.367188 9.144531 57.066406 C 9.144531 56.859375 9.183594 56.675781 9.253906 56.511719 Z M 9.253906 56.511719 "/>
</g>
</defs>
<g id="surface1">
<path style=" stroke:none;fill-rule:evenodd;fill:rgb(0.392157%,46.27451%,67.843137%);fill-opacity:1;" d="M 30.535156 63.390625 C 30.378906 63.398438 30.230469 63.363281 30.09375 63.277344 C 22.089844 63.5 14.074219 63.574219 6.039062 63.5 C 3.503906 62.941406 1.710938 61.464844 0.664062 59.0625 C 0.515625 58.707031 0.421875 58.335938 0.386719 57.953125 C 0.386719 40.613281 0.386719 23.273438 0.386719 5.933594 C 1.226562 2.773438 3.257812 0.871094 6.484375 0.222656 C 14.167969 0.148438 21.855469 0.148438 29.539062 0.222656 C 33.316406 1.007812 35.441406 3.320312 35.914062 7.152344 C 35.984375 23.679688 35.984375 40.207031 35.914062 56.734375 C 35.710938 59.226562 34.582031 61.167969 32.53125 62.558594 C 31.902344 62.929688 31.234375 63.207031 30.535156 63.390625 Z M 32.640625 6.710938 C 32.753906 23.308594 32.789062 39.910156 32.753906 56.511719 C 32.496094 58.601562 31.351562 59.914062 29.316406 60.449219 C 21.78125 60.523438 14.242188 60.523438 6.707031 60.449219 C 4.949219 60.027344 3.859375 58.933594 3.4375 57.179688 C 3.363281 40.355469 3.363281 23.535156 3.4375 6.710938 C 3.859375 4.953125 4.949219 3.863281 6.707031 3.4375 C 7.664062 3.382812 8.625 3.363281 9.585938 3.382812 C 9.859375 5.667969 11.113281 7.054688 13.355469 7.542969 C 16.871094 7.648438 20.382812 7.613281 23.886719 7.429688 C 25.089844 7.074219 25.996094 6.355469 26.601562 5.269531 C 26.792969 4.671875 26.996094 4.082031 27.210938 3.492188 C 29.964844 3.003906 31.777344 4.078125 32.640625 6.710938 Z M 23.886719 3.382812 C 23.851562 3.878906 23.59375 4.195312 23.109375 4.324219 C 19.933594 4.398438 16.753906 4.398438 13.578125 4.324219 C 13.210938 4.160156 12.988281 3.882812 12.914062 3.492188 C 16.550781 3.382812 20.210938 3.347656 23.886719 3.382812 Z M 23.886719 3.382812 "/>
<use xlink:href="#surface5" mask="url(#mask0)"/>
<path style=" stroke:none;fill-rule:evenodd;fill:rgb(27.843137%,54.117647%,73.72549%);fill-opacity:1;" d="M 0.386719 5.933594 C 0.386719 23.273438 0.386719 40.613281 0.386719 57.953125 C 0.300781 57.792969 0.242188 57.609375 0.222656 57.398438 C 0.148438 40.429688 0.148438 23.460938 0.222656 6.488281 C 0.242188 6.28125 0.300781 6.09375 0.386719 5.933594 Z M 0.386719 5.933594 "/>
<use xlink:href="#surface8" mask="url(#mask1)"/>
<use xlink:href="#surface11" mask="url(#mask2)"/>
<use xlink:href="#surface14" mask="url(#mask3)"/>
<use xlink:href="#surface17" mask="url(#mask4)"/>
<use xlink:href="#surface20" mask="url(#mask5)"/>
<use xlink:href="#surface23" mask="url(#mask6)"/>
<use xlink:href="#surface26" mask="url(#mask7)"/>
<use xlink:href="#surface29" mask="url(#mask8)"/>
<use xlink:href="#surface32" mask="url(#mask9)"/>
<use xlink:href="#surface35" mask="url(#mask10)"/>
<use xlink:href="#surface38" mask="url(#mask11)"/>
<use xlink:href="#surface41" mask="url(#mask12)"/>
<use xlink:href="#surface44" mask="url(#mask13)"/>
<use xlink:href="#surface47" mask="url(#mask14)"/>
<use xlink:href="#surface50" mask="url(#mask15)"/>
<use xlink:href="#surface53" mask="url(#mask16)"/>
<path style=" stroke:none;fill-rule:evenodd;fill:rgb(7.45098%,48.235294%,69.803922%);fill-opacity:1;" d="M 6.375 29.558594 C 6.21875 29.332031 6.035156 29.148438 5.820312 29.003906 C 5.503906 28.394531 5.558594 27.800781 5.984375 27.230469 C 11.265625 22.453125 17.308594 21.179688 24.109375 23.402344 C 26.320312 24.25 28.277344 25.488281 29.980469 27.121094 C 30.703125 28.007812 30.628906 28.839844 29.761719 29.617188 C 29.167969 29.984375 28.578125 29.984375 27.988281 29.617188 C 23.46875 25.515625 18.335938 24.519531 12.582031 26.621094 C 10.847656 27.394531 9.296875 28.429688 7.925781 29.726562 C 7.355469 29.984375 6.839844 29.929688 6.375 29.558594 Z M 6.375 29.558594 "/>
<path style=" stroke:none;fill-rule:evenodd;fill:rgb(8.235294%,48.627451%,70.196078%);fill-opacity:1;" d="M 17.457031 27.339844 C 21.125 27.289062 24.246094 28.546875 26.824219 31.113281 C 27.386719 32.230469 27.109375 33.0625 25.992188 33.609375 C 25.421875 33.730469 24.902344 33.621094 24.441406 33.277344 C 21.769531 30.757812 18.667969 30.019531 15.128906 31.058594 C 14.488281 31.324219 13.859375 31.617188 13.246094 31.945312 C 12.539062 32.542969 11.800781 33.097656 11.027344 33.609375 C 9.457031 33.734375 8.808594 33.015625 9.089844 31.445312 C 10.699219 29.574219 12.714844 28.335938 15.128906 27.730469 C 15.917969 27.574219 16.695312 27.445312 17.457031 27.339844 Z M 17.457031 27.339844 "/>
<use xlink:href="#surface56" mask="url(#mask17)"/>
<path style=" stroke:none;fill-rule:evenodd;fill:rgb(9.019608%,48.627451%,70.196078%);fill-opacity:1;" d="M 22.886719 34.328125 C 22.953125 34.578125 23.101562 34.761719 23.332031 34.882812 C 23.851562 35.457031 23.90625 36.085938 23.5 36.769531 C 23.027344 37.371094 22.417969 37.574219 21.667969 37.378906 C 21.023438 36.816406 20.324219 36.335938 19.5625 35.9375 C 18.441406 35.542969 17.332031 35.578125 16.238281 36.046875 C 15.648438 36.492188 15.054688 36.9375 14.464844 37.378906 C 13.222656 37.578125 12.519531 37.058594 12.359375 35.828125 C 12.339844 35.480469 12.433594 35.164062 12.636719 34.882812 C 15.195312 32.320312 18.132812 31.785156 21.449219 33.277344 C 21.96875 33.574219 22.449219 33.925781 22.886719 34.328125 Z M 22.886719 34.328125 "/>
<use xlink:href="#surface59" mask="url(#mask18)"/>
<use xlink:href="#surface62" mask="url(#mask19)"/>
<path style=" stroke:none;fill-rule:evenodd;fill:rgb(12.941176%,12.54902%,13.72549%);fill-opacity:1;" d="M 130.847656 37.878906 C 131.78125 37.726562 132.574219 37.988281 133.230469 38.65625 C 133.6875 40.636719 132.894531 41.503906 130.847656 41.261719 C 129.648438 40.886719 129.222656 40.089844 129.570312 38.875 C 129.867188 38.371094 130.292969 38.035156 130.847656 37.878906 Z M 130.847656 37.878906 "/>
<use xlink:href="#surface65" mask="url(#mask20)"/>
<path style=" stroke:none;fill-rule:evenodd;fill:rgb(12.941176%,11.764706%,12.54902%);fill-opacity:1;" d="M 102.472656 38.210938 C 103.617188 38.210938 104.761719 38.210938 105.90625 38.210938 C 105.871094 40.597656 105.90625 42.964844 106.019531 45.308594 C 106.011719 45.359375 106.03125 45.394531 106.074219 45.421875 C 106.53125 44.195312 107.03125 42.996094 107.570312 41.816406 C 108.789062 41.722656 110.011719 41.742188 111.226562 41.871094 C 110.601562 43.5 109.972656 45.125 109.34375 46.753906 C 110.003906 48.40625 110.632812 50.070312 111.226562 51.742188 C 110.007812 51.761719 108.789062 51.742188 107.570312 51.6875 C 107.078125 50.527344 106.597656 49.363281 106.128906 48.195312 C 106.1875 48.1875 106.226562 48.152344 106.238281 48.082031 C 106.113281 47.945312 105.984375 47.945312 105.851562 48.082031 C 105.796875 49.230469 105.777344 50.375 105.796875 51.523438 C 104.6875 51.523438 103.578125 51.523438 102.472656 51.523438 C 102.472656 47.085938 102.472656 42.648438 102.472656 38.210938 Z M 102.472656 38.210938 "/>
<use xlink:href="#surface68" mask="url(#mask21)"/>
<use xlink:href="#surface71" mask="url(#mask22)"/>
<path style=" stroke:none;fill-rule:evenodd;fill:rgb(12.941176%,11.764706%,12.54902%);fill-opacity:1;" d="M 144.257812 38.210938 C 144.257812 38.25 144.257812 38.285156 144.257812 38.324219 C 144.117188 40.007812 144.117188 41.523438 144.257812 42.871094 C 145.304688 41.570312 146.597656 41.292969 148.136719 42.039062 C 148.816406 42.597656 149.183594 43.320312 149.246094 44.199219 C 149.171875 46.613281 149.097656 49.035156 149.023438 51.464844 C 147.960938 51.558594 146.910156 51.539062 145.867188 51.410156 C 145.847656 49.285156 145.789062 47.175781 145.699219 45.089844 C 145.363281 44.308594 144.921875 44.234375 144.367188 44.867188 C 144.300781 44.878906 144.246094 44.914062 144.203125 44.976562 C 144.148438 47.160156 144.128906 49.339844 144.148438 51.523438 C 143.074219 51.503906 142.003906 51.523438 140.933594 51.578125 C 142.039062 51.632812 143.148438 51.652344 144.257812 51.632812 C 143.074219 51.78125 141.894531 51.78125 140.710938 51.632812 C 140.804688 47.214844 140.859375 42.777344 140.878906 38.324219 C 141.996094 38.214844 143.121094 38.175781 144.257812 38.210938 Z M 144.257812 38.210938 "/>
<use xlink:href="#surface74" mask="url(#mask23)"/>
<path style=" stroke:none;fill-rule:evenodd;fill:rgb(12.941176%,12.156863%,12.941176%);fill-opacity:1;" d="M 64.785156 49.082031 C 64.839844 48.796875 64.765625 48.574219 64.5625 48.414062 C 64.464844 48.238281 64.464844 48.074219 64.5625 47.917969 C 65.746094 47.707031 66.929688 47.503906 68.109375 47.308594 C 67.96875 48.121094 68.28125 48.640625 69.054688 48.859375 C 69.769531 48.546875 69.953125 48.027344 69.609375 47.308594 C 69.339844 47.035156 69.027344 46.832031 68.664062 46.695312 C 67.328125 46.40625 66.199219 45.757812 65.285156 44.753906 C 64.378906 43.066406 64.507812 41.457031 65.671875 39.929688 C 67.023438 38.925781 68.539062 38.59375 70.21875 38.933594 C 72.261719 39.378906 73.332031 40.652344 73.429688 42.757812 C 72.28125 42.914062 71.136719 43.097656 69.996094 43.3125 C 69.964844 42.78125 69.78125 42.320312 69.441406 41.925781 C 68.488281 41.808594 68.136719 42.234375 68.386719 43.203125 C 68.476562 43.402344 68.605469 43.566406 68.777344 43.703125 C 69.851562 44.058594 70.886719 44.503906 71.878906 45.03125 C 73.550781 46.457031 73.902344 48.175781 72.933594 50.191406 C 72.191406 51.144531 71.214844 51.679688 69.996094 51.800781 C 68.285156 52.085938 66.789062 51.660156 65.507812 50.523438 C 65.148438 50.101562 64.90625 49.621094 64.785156 49.082031 Z M 64.785156 49.082031 "/>
<use xlink:href="#surface77" mask="url(#mask24)"/>
<use xlink:href="#surface80" mask="url(#mask25)"/>
<use xlink:href="#surface83" mask="url(#mask26)"/>
<path style=" stroke:none;fill-rule:evenodd;fill:rgb(12.941176%,11.764706%,12.941176%);fill-opacity:1;" d="M 120.425781 38.988281 C 121.40625 39.078125 122.402344 39.136719 123.421875 39.152344 C 123.480469 39.234375 123.554688 39.289062 123.640625 39.320312 C 123.988281 41.519531 124.304688 43.738281 124.585938 45.976562 C 124.878906 43.757812 125.15625 41.539062 125.414062 39.320312 C 125.503906 39.289062 125.578125 39.234375 125.636719 39.152344 C 126.746094 39.097656 127.851562 39.082031 128.960938 39.097656 C 128.929688 39.3125 128.96875 39.496094 129.074219 39.652344 C 128.441406 43.664062 127.8125 47.675781 127.1875 51.6875 C 125.757812 51.777344 124.335938 51.761719 122.921875 51.632812 C 122.609375 49.894531 122.292969 48.15625 121.980469 46.417969 C 121.664062 48.15625 121.351562 49.894531 121.039062 51.632812 C 119.585938 51.742188 118.128906 51.78125 116.660156 51.742188 C 116.078125 47.496094 115.523438 43.242188 114.996094 38.988281 C 116.214844 38.988281 117.433594 38.988281 118.652344 38.988281 C 118.902344 41.351562 119.140625 43.71875 119.375 46.085938 C 119.691406 43.699219 120.042969 41.332031 120.425781 38.988281 Z M 120.425781 38.988281 "/>
<path style=" stroke:none;fill-rule:evenodd;fill:rgb(12.941176%,11.764706%,12.941176%);fill-opacity:1;" d="M 161.105469 39.210938 C 161.949219 43.363281 162.726562 47.539062 163.433594 51.742188 C 162.214844 51.761719 160.992188 51.742188 159.777344 51.6875 C 159.582031 50.941406 159.433594 50.183594 159.332031 49.414062 C 158.707031 49.304688 158.082031 49.265625 157.449219 49.304688 C 157.390625 50.109375 157.277344 50.90625 157.117188 51.6875 C 155.859375 51.742188 154.605469 51.761719 153.347656 51.742188 C 154.070312 47.652344 154.84375 43.585938 155.675781 39.542969 C 155.757812 39.429688 155.832031 39.296875 155.894531 39.152344 C 157.636719 39.066406 159.375 39.082031 161.105469 39.210938 Z M 159 46.308594 C 158.628906 46.308594 158.261719 46.308594 157.890625 46.308594 C 157.890625 46.160156 157.890625 46.011719 157.890625 45.863281 C 158.074219 44.691406 158.242188 43.507812 158.390625 42.316406 C 158.613281 43.644531 158.816406 44.976562 159 46.308594 Z M 159 46.308594 "/>
<use xlink:href="#surface86" mask="url(#mask27)"/>
<path style=" stroke:none;fill-rule:evenodd;fill:rgb(12.941176%,11.764706%,12.54902%);fill-opacity:1;" d="M 177.398438 39.210938 C 179.761719 39.210938 182.128906 39.210938 184.492188 39.210938 C 184.492188 40.097656 184.492188 40.984375 184.492188 41.871094 C 183.230469 41.800781 182.011719 41.875 180.835938 42.09375 C 180.835938 42.683594 180.835938 43.277344 180.835938 43.867188 C 181.824219 44.085938 182.859375 44.160156 183.9375 44.089844 C 183.9375 44.941406 183.9375 45.789062 183.9375 46.640625 C 182.859375 46.570312 181.824219 46.644531 180.835938 46.863281 C 180.835938 47.453125 180.835938 48.046875 180.835938 48.636719 C 182.035156 48.75 183.253906 48.785156 184.492188 48.75 C 184.492188 49.671875 184.492188 50.597656 184.492188 51.523438 C 182.128906 51.523438 179.761719 51.523438 177.398438 51.523438 C 177.398438 47.417969 177.398438 43.3125 177.398438 39.210938 Z M 177.398438 39.210938 "/>
<path style=" stroke:none;fill-rule:evenodd;fill:rgb(49.411765%,76.470588%,41.960784%);fill-opacity:1;" d="M 51.261719 40.097656 C 51.375 40.085938 51.464844 40.125 51.539062 40.207031 C 51.980469 39.933594 52.441406 39.710938 52.925781 39.542969 C 56.449219 39.152344 58.792969 40.628906 59.964844 43.980469 C 60.589844 47.777344 59.09375 50.3125 55.476562 51.578125 C 52.210938 52.097656 49.828125 50.894531 48.328125 47.972656 C 47.289062 44.960938 48.007812 42.464844 50.488281 40.484375 C 50.753906 40.351562 51.011719 40.222656 51.261719 40.097656 Z M 51.261719 40.097656 "/>
<path style=" stroke:none;fill-rule:evenodd;fill:rgb(13.333333%,12.156863%,13.333333%);fill-opacity:1;" d="M 223.730469 39.542969 C 223.800781 40.292969 223.875 41.03125 223.953125 41.761719 C 224.46875 41.742188 224.988281 41.761719 225.503906 41.816406 C 225.652344 42.742188 225.652344 43.664062 225.503906 44.589844 C 224.988281 44.644531 224.46875 44.664062 223.953125 44.644531 C 223.933594 45.976562 223.953125 47.308594 224.007812 48.636719 C 224.324219 49.195312 224.785156 49.34375 225.394531 49.082031 C 225.359375 49.328125 225.398438 49.550781 225.503906 49.746094 C 225.527344 50.316406 225.453125 50.871094 225.28125 51.410156 C 224.03125 51.96875 222.773438 51.988281 221.511719 51.464844 C 220.949219 51.019531 220.597656 50.445312 220.460938 49.746094 C 220.40625 48.046875 220.386719 46.347656 220.40625 44.644531 C 220.109375 44.644531 219.8125 44.644531 219.519531 44.644531 C 219.519531 43.683594 219.519531 42.722656 219.519531 41.761719 C 219.8125 41.761719 220.109375 41.761719 220.40625 41.761719 C 220.40625 41.167969 220.40625 40.578125 220.40625 39.984375 C 221.519531 39.871094 222.625 39.722656 223.730469 39.542969 Z M 223.730469 39.542969 "/>
<path style=" stroke:none;fill-rule:evenodd;fill:rgb(12.941176%,12.156863%,12.941176%);fill-opacity:1;" d="M 138.9375 49.191406 C 139.246094 49.300781 139.578125 49.335938 139.933594 49.304688 C 139.8125 49.875 139.8125 50.429688 139.933594 50.96875 C 139.921875 51.308594 139.738281 51.515625 139.382812 51.578125 C 138.429688 51.886719 137.46875 51.925781 136.5 51.6875 C 135.546875 51.28125 135.011719 50.558594 134.890625 49.523438 C 134.835938 47.898438 134.816406 46.273438 134.835938 44.644531 C 134.539062 44.644531 134.246094 44.644531 133.949219 44.644531 C 133.949219 43.683594 133.949219 42.722656 133.949219 41.761719 C 134.246094 41.761719 134.539062 41.761719 134.835938 41.761719 C 134.84375 41.820312 134.878906 41.859375 134.949219 41.871094 C 135.058594 41.285156 135.09375 40.691406 135.058594 40.097656 C 135.203125 40.125 135.3125 40.085938 135.390625 39.984375 C 136.378906 39.804688 137.375 39.65625 138.382812 39.542969 C 138.382812 40.28125 138.382812 41.019531 138.382812 41.761719 C 138.9375 41.761719 139.492188 41.761719 140.046875 41.761719 C 140.046875 42.722656 140.046875 43.683594 140.046875 44.644531 C 139.492188 44.644531 138.9375 44.644531 138.382812 44.644531 C 138.339844 46.019531 138.394531 47.386719 138.550781 48.75 C 138.625 48.953125 138.757812 49.101562 138.9375 49.191406 Z M 138.9375 49.191406 "/>
<use xlink:href="#surface89" mask="url(#mask28)"/>
<use xlink:href="#surface92" mask="url(#mask29)"/>
<path style=" stroke:none;fill-rule:evenodd;fill:rgb(10.196078%,18.823529%,24.705882%);fill-opacity:1;" d="M 135.390625 39.984375 C 135.3125 40.085938 135.203125 40.125 135.058594 40.097656 C 135.09375 40.691406 135.058594 41.285156 134.949219 41.871094 C 134.878906 41.859375 134.84375 41.820312 134.835938 41.761719 C 134.835938 41.167969 134.835938 40.578125 134.835938 39.984375 C 135.023438 39.984375 135.207031 39.984375 135.390625 39.984375 Z M 135.390625 39.984375 "/>
<use xlink:href="#surface95" mask="url(#mask30)"/>
<path style=" stroke:none;fill-rule:evenodd;fill:rgb(12.54902%,11.372549%,12.54902%);fill-opacity:1;" d="M 169.085938 41.648438 C 171.238281 41.421875 172.402344 42.382812 172.578125 44.535156 C 172.652344 46.898438 172.652344 49.265625 172.578125 51.632812 C 171.394531 51.78125 170.214844 51.78125 169.03125 51.632812 C 168.996094 49.339844 168.957031 47.046875 168.921875 44.753906 C 168.652344 44.40625 168.339844 44.351562 167.976562 44.589844 C 167.824219 44.71875 167.730469 44.886719 167.699219 45.089844 C 167.644531 47.304688 167.625 49.523438 167.644531 51.742188 C 166.4375 51.777344 165.234375 51.742188 164.042969 51.632812 C 163.96875 48.378906 163.96875 45.125 164.042969 41.871094 C 165.125 41.761719 166.214844 41.726562 167.3125 41.761719 C 167.371094 42.175781 167.460938 42.582031 167.589844 42.980469 C 167.90625 42.3125 168.40625 41.867188 169.085938 41.648438 Z M 169.085938 41.648438 "/>
<path style=" stroke:none;fill-rule:evenodd;fill:rgb(12.941176%,12.156863%,13.333333%);fill-opacity:1;" d="M 199.679688 41.648438 C 201.84375 41.542969 203.042969 42.578125 203.28125 44.753906 C 203.574219 46.523438 203.464844 48.261719 202.949219 49.96875 C 202.171875 51.679688 200.898438 52.214844 199.125 51.578125 C 198.804688 51.367188 198.5625 51.089844 198.402344 50.746094 C 198.347656 52.261719 198.328125 53.777344 198.347656 55.292969 C 197.128906 55.292969 195.910156 55.292969 194.691406 55.292969 C 194.691406 50.78125 194.691406 46.273438 194.691406 41.761719 C 195.871094 41.761719 197.054688 41.761719 198.238281 41.761719 C 198.21875 42.132812 198.238281 42.503906 198.292969 42.871094 C 198.570312 42.238281 199.03125 41.832031 199.679688 41.648438 Z M 199.011719 44.421875 C 199.300781 44.507812 199.507812 44.695312 199.621094 44.976562 C 199.84375 46.160156 199.84375 47.34375 199.621094 48.527344 C 199.433594 48.9375 199.121094 49.066406 198.679688 48.914062 C 198.546875 48.816406 198.457031 48.6875 198.402344 48.527344 C 198.1875 47.308594 198.1875 46.089844 198.402344 44.867188 C 198.570312 44.648438 198.773438 44.5 199.011719 44.421875 Z M 199.011719 44.421875 "/>
<path style=" stroke:none;fill-rule:evenodd;fill:rgb(12.941176%,12.156863%,12.941176%);fill-opacity:1;" d="M 207.4375 41.648438 C 210.746094 41.46875 212.445312 43.039062 212.535156 46.363281 C 212.507812 46.789062 212.46875 47.214844 212.425781 47.640625 C 210.761719 47.621094 209.097656 47.640625 207.4375 47.695312 C 207.539062 48.125 207.667969 48.550781 207.824219 48.96875 C 208.121094 49.265625 208.414062 49.265625 208.710938 48.96875 C 208.882812 48.660156 208.976562 48.324219 208.988281 47.972656 C 210.136719 48.152344 211.28125 48.355469 212.425781 48.582031 C 211.679688 51.136719 209.980469 52.207031 207.324219 51.800781 C 205.527344 51.363281 204.433594 50.238281 204.054688 48.414062 C 203.78125 46.90625 203.890625 45.429688 204.390625 43.980469 C 205.015625 42.667969 206.03125 41.890625 207.4375 41.648438 Z M 208.101562 44.3125 C 208.707031 44.363281 209 44.695312 208.988281 45.308594 C 208.515625 45.421875 208.03125 45.457031 207.546875 45.421875 C 207.566406 44.953125 207.75 44.582031 208.101562 44.3125 Z M 208.101562 44.3125 "/>
<path style=" stroke:none;fill-rule:evenodd;fill:rgb(12.941176%,12.156863%,13.333333%);fill-opacity:1;" d="M 218.851562 41.648438 C 219 42.648438 219 43.644531 218.851562 44.644531 C 217.738281 44.445312 217.039062 44.886719 216.746094 45.976562 C 216.65625 47.769531 216.601562 49.578125 216.582031 51.410156 C 215.535156 51.5 214.484375 51.558594 213.421875 51.578125 C 214.53125 51.632812 215.636719 51.652344 216.746094 51.632812 C 215.585938 51.742188 214.402344 51.78125 213.199219 51.742188 C 213.199219 48.414062 213.199219 45.089844 213.199219 41.761719 C 214.3125 41.722656 215.417969 41.761719 216.527344 41.871094 C 216.582031 42.183594 216.675781 42.480469 216.804688 42.757812 C 217.335938 42.113281 218.019531 41.742188 218.851562 41.648438 Z M 218.851562 41.648438 "/>
<use xlink:href="#surface98" mask="url(#mask31)"/>
<path style=" stroke:none;fill-rule:evenodd;fill:rgb(12.941176%,11.764706%,12.54902%);fill-opacity:1;" d="M 77.976562 50.746094 C 77.996094 50.566406 77.941406 50.417969 77.808594 50.300781 C 77.753906 51.929688 77.734375 53.554688 77.753906 55.183594 C 76.609375 55.183594 75.464844 55.183594 74.316406 55.183594 C 74.316406 50.746094 74.316406 46.308594 74.316406 41.871094 C 75.464844 41.871094 76.609375 41.871094 77.753906 41.871094 C 77.71875 42.25 77.753906 42.617188 77.863281 42.980469 C 78.042969 42.890625 78.117188 42.742188 78.085938 42.539062 C 78.671875 41.769531 79.445312 41.492188 80.414062 41.707031 C 81.660156 42.027344 82.417969 42.820312 82.6875 44.089844 C 83.054688 45.863281 83.054688 47.640625 82.6875 49.414062 C 82.058594 51.496094 80.707031 52.214844 78.640625 51.578125 C 78.351562 51.347656 78.132812 51.070312 77.976562 50.746094 Z M 78.53125 44.421875 C 78.820312 44.507812 79.023438 44.695312 79.140625 44.976562 C 79.507812 46.160156 79.507812 47.34375 79.140625 48.527344 C 78.953125 48.9375 78.636719 49.066406 78.199219 48.914062 C 78.0625 48.816406 77.972656 48.6875 77.921875 48.527344 C 77.847656 47.34375 77.847656 46.160156 77.921875 44.976562 C 78.042969 44.6875 78.246094 44.503906 78.53125 44.421875 Z M 78.53125 44.421875 "/>
<path style=" stroke:none;fill-rule:evenodd;fill:rgb(12.941176%,12.156863%,13.333333%);fill-opacity:1;" d="M 86.953125 41.648438 C 90.269531 41.472656 91.96875 43.042969 92.050781 46.363281 C 92.046875 46.757812 92.011719 47.144531 91.941406 47.527344 C 90.316406 47.640625 88.691406 47.675781 87.066406 47.640625 C 87.070312 47.980469 87.125 48.3125 87.230469 48.636719 C 87.515625 49.226562 87.886719 49.300781 88.339844 48.859375 C 88.457031 48.574219 88.515625 48.28125 88.503906 47.972656 C 89.664062 48.132812 90.808594 48.355469 91.941406 48.636719 C 91.226562 51.140625 89.5625 52.195312 86.953125 51.800781 C 85.222656 51.472656 84.132812 50.457031 83.683594 48.75 C 83.191406 46.753906 83.449219 44.867188 84.460938 43.09375 C 85.144531 42.335938 85.976562 41.855469 86.953125 41.648438 Z M 87.730469 44.3125 C 88.304688 44.445312 88.566406 44.816406 88.503906 45.421875 C 88.023438 45.441406 87.542969 45.421875 87.066406 45.367188 C 87.136719 44.910156 87.355469 44.558594 87.730469 44.3125 Z M 87.730469 44.3125 "/>
<path style=" stroke:none;fill-rule:evenodd;fill:rgb(12.941176%,11.764706%,12.941176%);fill-opacity:1;" d="M 95.933594 41.648438 C 97.234375 41.515625 98.453125 41.753906 99.589844 42.371094 C 100.214844 42.828125 100.605469 43.4375 100.753906 44.199219 C 100.882812 45.789062 100.957031 47.378906 100.976562 48.96875 C 101.21875 49.214844 101.496094 49.253906 101.804688 49.082031 C 101.921875 49.863281 101.886719 50.636719 101.695312 51.410156 C 100.6875 51.929688 99.652344 51.984375 98.59375 51.578125 C 98.28125 51.378906 98.003906 51.136719 97.761719 50.855469 C 96.964844 51.726562 95.984375 52.039062 94.824219 51.800781 C 93.644531 51.582031 92.886719 50.898438 92.550781 49.746094 C 92.164062 47.546875 93.070312 46.269531 95.265625 45.921875 C 95.96875 45.882812 96.671875 45.847656 97.371094 45.808594 C 97.304688 45.34375 97.214844 44.882812 97.09375 44.421875 C 96.753906 44.230469 96.496094 44.304688 96.320312 44.644531 C 96.265625 44.9375 96.246094 45.234375 96.265625 45.53125 C 95.160156 45.382812 94.050781 45.273438 92.9375 45.199219 C 92.972656 43.207031 93.972656 42.023438 95.933594 41.648438 Z M 96.597656 47.863281 C 96.820312 47.863281 97.039062 47.863281 97.261719 47.863281 C 97.28125 48.304688 97.261719 48.75 97.207031 49.191406 C 96.875 49.582031 96.503906 49.617188 96.097656 49.304688 C 96.003906 48.882812 96.042969 48.476562 96.210938 48.082031 C 96.351562 48.019531 96.484375 47.945312 96.597656 47.863281 Z M 96.597656 47.863281 "/>
<path style=" stroke:none;fill-rule:evenodd;fill:rgb(12.54902%,11.764706%,12.54902%);fill-opacity:1;" d="M 185.269531 41.761719 C 186.492188 41.722656 187.710938 41.761719 188.925781 41.871094 C 189.183594 42.714844 189.425781 43.566406 189.648438 44.421875 C 189.882812 43.535156 190.160156 42.667969 190.476562 41.816406 C 191.660156 41.761719 192.84375 41.742188 194.023438 41.761719 C 193.496094 43.429688 192.941406 45.09375 192.363281 46.753906 C 192.941406 48.410156 193.496094 50.074219 194.023438 51.742188 C 192.84375 51.761719 191.660156 51.742188 190.476562 51.6875 C 190.160156 50.835938 189.882812 49.96875 189.648438 49.082031 C 189.445312 49.984375 189.167969 50.851562 188.816406 51.6875 C 187.632812 51.78125 186.449219 51.761719 185.269531 51.632812 C 185.867188 50.019531 186.421875 48.394531 186.929688 46.753906 C 186.398438 45.078125 185.84375 43.417969 185.269531 41.761719 Z M 185.269531 41.761719 "/>
<use xlink:href="#surface101" mask="url(#mask32)"/>
<use xlink:href="#surface104" mask="url(#mask33)"/>
<use xlink:href="#surface107" mask="url(#mask34)"/>
<use xlink:href="#surface110" mask="url(#mask35)"/>
<use xlink:href="#surface113" mask="url(#mask36)"/>
<use xlink:href="#surface116" mask="url(#mask37)"/>
<path style=" stroke:none;fill-rule:evenodd;fill:rgb(32.54902%,39.607843%,43.921569%);fill-opacity:1;" d="M 64.5625 48.414062 C 64.765625 48.574219 64.839844 48.796875 64.785156 49.082031 C 64.648438 48.890625 64.574219 48.667969 64.5625 48.414062 Z M 64.5625 48.414062 "/>
<use xlink:href="#surface119" mask="url(#mask38)"/>
<use xlink:href="#surface122" mask="url(#mask39)"/>
<use xlink:href="#surface125" mask="url(#mask40)"/>
<use xlink:href="#surface128" mask="url(#mask41)"/>
<use xlink:href="#surface131" mask="url(#mask42)"/>
<path style=" stroke:none;fill-rule:evenodd;fill:rgb(0%,46.666667%,68.627451%);fill-opacity:1;" d="M 9.367188 57.84375 C 9.355469 57.734375 9.394531 57.640625 9.476562 57.566406 C 9.273438 57.253906 9.199219 56.90625 9.253906 56.511719 C 9.375 56.042969 9.671875 55.726562 10.140625 55.570312 C 15.386719 55.496094 20.632812 55.496094 25.882812 55.570312 C 26.972656 56.152344 27.214844 56.984375 26.601562 58.066406 C 26.410156 58.300781 26.167969 58.46875 25.882812 58.566406 C 20.671875 58.640625 15.460938 58.640625 10.253906 58.566406 C 9.84375 58.453125 9.546875 58.214844 9.367188 57.84375 Z M 9.367188 57.84375 "/>
<use xlink:href="#surface134" mask="url(#mask43)"/>
<path style=" stroke:none;fill-rule:evenodd;fill:rgb(27.45098%,53.333333%,72.54902%);fill-opacity:1;" d="M 30.535156 63.390625 C 30.195312 63.539062 29.824219 63.632812 29.429688 63.667969 C 21.816406 63.742188 14.207031 63.742188 6.59375 63.667969 C 6.386719 63.644531 6.203125 63.589844 6.039062 63.5 C 14.074219 63.574219 22.089844 63.5 30.09375 63.277344 C 30.230469 63.363281 30.378906 63.398438 30.535156 63.390625 Z M 30.535156 63.390625 "/>
</g>
</svg>
