<?xml version="1.0" encoding="UTF-8"?>
<svg width="70px" height="70px" viewBox="0 0 70 70" version="1.1" xmlns="http://www.w3.org/2000/svg" xmlns:xlink="http://www.w3.org/1999/xlink">
    <!-- Generator: Sketch 49.3 (51167) - http://www.bohemiancoding.com/sketch -->
    <title>004-favorites</title>
    <desc>Created with Sketch.</desc>
    <defs></defs>
    <g id="Landingpage" stroke="none" stroke-width="1" fill="none" fill-rule="evenodd" opacity="0.979999959">
        <g id="landingpage_woven_labels_with_USPs" transform="translate(-445.000000, -849.000000)" fill="#FFFFFF" fill-rule="nonzero">
            <g id="004-favorites" transform="translate(445.000000, 849.000000)">
                <path d="M64.5596875,27.5115506 C65.827207,26.2603837 66.2746875,24.4241297 65.7278125,22.7194027 C65.1808008,21.0146756 63.7529102,19.795629 62.0012695,19.5379747 L46.684668,17.2841574 C46.3840234,17.2399921 46.1241211,17.0487935 45.9895898,16.7727255 L39.1398438,2.71803797 C38.356582,1.11064082 36.7703711,0.112143987 35.0002734,0.112143987 C33.2301758,0.112143987 31.6439648,1.11064082 30.8607031,2.71803797 L24.010957,16.7728639 C23.8762891,17.0487935 23.6165234,17.2399921 23.3157422,17.2842959 L7.99941406,19.5379747 C6.24777344,19.795629 4.82001953,21.0146756 4.27287109,22.7194027 C3.72572266,24.4241297 4.17333984,26.2603837 5.44099609,27.5115506 L16.5241016,38.4516812 C16.7416211,38.6665546 16.8410156,38.9759889 16.7896094,39.2793315 L14.1732227,54.7269581 C13.874082,56.4937104 14.5776367,58.2455103 16.0096289,59.29911 C17.4416211,60.3529866 19.3048242,60.4890823 20.8713477,59.6552017 L34.5707031,52.3618275 C34.8397656,52.2185324 35.160918,52.2185324 35.4301172,52.3618275 L49.1296094,59.6552017 C49.8110156,60.0179391 50.5483398,60.197231 51.2821094,60.1970926 C52.2350391,60.1970926 53.1819531,59.8947191 53.990918,59.2989715 C55.4229102,58.2452334 56.1266016,56.4932951 55.8273242,54.7268196 L53.2109375,39.279193 C53.159668,38.9758505 53.2589258,38.6664161 53.4764453,38.4515427 L64.5596875,27.5115506 Z M49.5713477,39.9116297 L52.1877344,55.3595332 C52.2752344,55.8765032 51.9600977,56.1712619 51.8205078,56.2738528 C51.6807813,56.3763054 51.3064453,56.5891021 50.8481641,56.3448774 L37.1486719,49.0515032 C36.4761523,48.6936116 35.738418,48.5144581 35.0005469,48.5144581 C34.2626758,48.5144581 33.5248047,48.6936116 32.8524219,49.0513647 L19.1530664,56.3446005 C18.6945117,56.5886867 18.3203125,56.3761669 18.1807227,56.2735759 C18.0411328,56.170985 17.7258594,55.8762263 17.8134961,55.3592563 L20.4298828,39.9116297 C20.6867773,38.3949169 20.190625,36.8481606 19.102207,35.773932 L8.01910156,24.8338014 C7.64818359,24.4674644 7.73212891,24.0414557 7.78558594,23.8753165 C7.83876953,23.7090388 8.01828125,23.3143196 8.53083984,23.2390032 L23.8470313,20.9851859 C25.3508008,20.7639438 26.6503125,19.8080894 27.3229688,18.4278877 L34.1727148,4.37306171 C34.4019922,3.90274921 34.8280078,3.85193829 35.0006836,3.85193829 C35.1730859,3.85193829 35.5991016,3.90261076 35.8285156,4.37306171 L35.8285156,4.37320016 L42.6782617,18.4280261 C43.3507813,19.8082278 44.6501563,20.7640823 46.1539258,20.9853244 L61.4703906,23.2391416 C61.9829492,23.3144581 62.1623242,23.7091772 62.2156445,23.8754549 C62.2689648,24.0417326 62.3530469,24.4678797 61.9819922,24.8339399 L50.8988867,35.7740704 C49.8106055,36.8481606 49.3144531,38.3949169 49.5713477,39.9116297 Z" id="Shape"></path>
                <path d="M56.5718945,2.71706883 C55.7466602,2.1101068 54.5920703,2.29535206 53.9926953,3.13075554 L52.0325586,5.86263845 C51.4331836,6.69804193 51.6159766,7.86752373 52.4410742,8.47448576 C52.7690625,8.71552611 53.1487305,8.83168513 53.5249805,8.83168513 C54.0960547,8.83168513 54.6590625,8.5643394 55.0202734,8.0609375 L56.9804102,5.32905459 C57.5797852,4.49351266 57.3969922,3.32403085 56.5718945,2.71706883 Z" id="Shape"></path>
                <path d="M17.959375,5.8515625 L15.9992383,3.11967959 C15.4,2.28455301 14.2452734,2.09930775 13.4200391,2.70599288 C12.5950781,3.31295491 12.4121484,4.48243671 13.0115234,5.31784019 L14.9716602,8.0497231 C15.3330078,8.55354035 15.8960156,8.82074763 16.4672266,8.82074763 C16.8436133,8.82074763 17.223418,8.70458861 17.5509961,8.46340981 C18.375957,7.85658623 18.5588867,6.68710443 17.959375,5.8515625 Z" id="Shape"></path>
                <path d="M6.7746875,42.0649328 C6.45955078,41.0829114 5.41789063,40.5453125 4.44787109,40.8644383 L1.27640625,41.9080696 C0.306386719,42.2271954 -0.22421875,43.282318 0.0909179688,44.2643394 C0.344394531,45.0547468 1.06832031,45.5570411 1.84666016,45.5570411 C2.03574219,45.5570411 2.22810547,45.5272745 2.41773438,45.4648339 L5.58919922,44.4212025 C6.55908203,44.1020767 7.08982422,43.047231 6.7746875,42.0649328 Z" id="Shape"></path>
                <path d="M35.0006836,62.8263845 C33.9808984,62.8263845 33.1541602,63.6635878 33.1541602,64.6962816 L33.1541602,68.0733386 C33.1541602,69.1060324 33.9808984,69.9432358 35.0006836,69.9432358 C36.0204688,69.9432358 36.847207,69.1060324 36.847207,68.0733386 L36.847207,64.6962816 C36.847207,63.6634494 36.0206055,62.8263845 35.0006836,62.8263845 Z" id="Shape"></path>
                <path d="M68.7235938,41.9107002 L65.5521289,40.8670688 C64.5825195,40.5482199 63.5404492,41.0854035 63.2253125,42.0677017 C62.9101758,43.05 63.4407813,44.1048457 64.4108008,44.4239715 L67.5822656,45.4676028 C67.7718945,45.5299051 67.9641211,45.5595332 68.1532031,45.5595332 C68.9316797,45.5595332 69.6556055,45.0571005 69.909082,44.2668315 C70.2242188,43.2846717 69.6934766,42.2298259 68.7235938,41.9107002 Z" id="Shape"></path>
            </g>
        </g>
    </g>
</svg>